<svg width="99" height="119" viewBox="0 0 99 119" fill="none" xmlns="http://www.w3.org/2000/svg">
<path d="M76.042 44.4624C75.6911 45.0639 75.3403 45.6654 74.9894 46.267C69.6258 54.5378 60.3525 60.0016 49.7758 60.0016H23.4093L0.100586 75.5407V89.6262V103.461V119L23.4093 103.461H68.4228C85.0146 103.461 98.4485 90.0273 98.4485 73.4354C98.3483 59.5504 88.8744 47.871 76.042 44.4624Z" fill="#5D71FF"/>
<path d="M74.9389 44.2115C75.2898 44.3117 75.6407 44.412 75.9916 44.5122C78.3475 40.2014 79.7009 35.289 79.7009 30.0257C79.7009 13.4339 66.2671 0 49.6752 0H13.9853C6.26579 0 0 6.26581 0 13.9853V43.4596H68.3222C70.6281 43.4596 72.8336 43.7102 74.9389 44.2115Z" fill="#7DCAFF"/>
<path d="M49.725 60.0015C60.3017 60.0015 69.6252 54.5377 74.9386 46.2669C75.2895 45.6654 75.6905 45.114 75.9912 44.4623C75.6404 44.3621 75.2895 44.2618 74.9386 44.1616C72.8333 43.7104 70.6277 43.4097 68.3219 43.4097H0.0498047V44.0613V45.4649V46.1165V57.8962V59.9514V73.3852V75.4404L23.3586 59.9012H49.725V60.0015Z" fill="#3BA2FF"/>
<path d="M32.3314 78.1969C34.7122 78.1969 36.6422 76.2669 36.6422 73.8861C36.6422 71.5053 34.7122 69.5752 32.3314 69.5752C29.9506 69.5752 28.0205 71.5053 28.0205 73.8861C28.0205 76.2669 29.9506 78.1969 32.3314 78.1969Z" fill="white"/>
<path d="M48.8734 78.1969C51.2542 78.1969 53.1842 76.2669 53.1842 73.8861C53.1842 71.5053 51.2542 69.5752 48.8734 69.5752C46.4925 69.5752 44.5625 71.5053 44.5625 73.8861C44.5625 76.2669 46.4925 78.1969 48.8734 78.1969Z" fill="white"/>
<path d="M66.1175 78.1969C68.4983 78.1969 70.4284 76.2669 70.4284 73.8861C70.4284 71.5053 68.4983 69.5752 66.1175 69.5752C63.7367 69.5752 61.8066 71.5053 61.8066 73.8861C61.8066 76.2669 63.7367 78.1969 66.1175 78.1969Z" fill="white"/>
</svg>
