<svg width="152" height="36" viewBox="0 0 152 36" fill="none" xmlns="http://www.w3.org/2000/svg">
<g clip-path="url(#clip0_1607_3986)">
<path d="M0 0.5C0 0.367392 0.0526784 0.240215 0.146447 0.146447C0.240215 0.0526784 0.367392 0 0.5 0L13.4 0C19.6 0 23.7 2.8 25.4 8C26 9.8 26.3 11.7 26.3 18C26.3 24.3 26 26.2 25.4 28C23.7 33.2 19.6 36 13.4 36H0.5C0.2 36 0 35.8 0 35.4V0.5ZM6.6 30.4H11.9C15.9 30.4 18.3 29 19.4 25.8C19.7 24.8 20 23.2 20 18C20 12.8 19.7 11.2 19.4 10.2C18.3 6.9 15.9 5.6 11.9 5.6H6.6C6.3 5.6 6.2 5.7 6.2 5.9V30C6.2 30.3 6.3 30.4 6.6 30.4Z" fill="#161C2D"/>
<path d="M74.4996 36.0001C74.3301 36.0019 74.1657 35.942 74.0369 35.8316C73.9082 35.7213 73.8239 35.5679 73.7996 35.4001L62.4996 0.500113C62.3996 0.200113 62.5996 0.00011302 62.8996 0.00011302H67.9996C68.1553 -0.00634248 68.3087 0.039331 68.4355 0.129899C68.5623 0.220466 68.6553 0.35075 68.6996 0.500113L76.7996 26.0001H76.8996L84.5996 0.500113C84.6566 0.358753 84.7527 0.236598 84.8767 0.148019C85.0007 0.0594413 85.1475 0.00812647 85.2996 0.00011302H90.4996C90.7996 0.00011302 90.9996 0.200113 90.8996 0.500113L79.3996 35.4001C79.2663 35.8001 79.0663 36.0001 78.7996 36.0001H74.4996Z" fill="#161C2D"/>
<path d="M94.5 36C94.2 36 94 35.8 94 35.4V30.9C94.02 30.6874 94.0884 30.4821 94.2 30.3L110.4 5.7H95.1C94.9674 5.7 94.8402 5.64732 94.7464 5.55355C94.6527 5.45979 94.6 5.33261 94.6 5.2V0.5C94.6 0.367392 94.6527 0.240215 94.7464 0.146447C94.8402 0.0526784 94.9674 0 95.1 0L116.9 0C117.033 0 117.16 0.0526784 117.254 0.146447C117.347 0.240215 117.4 0.367392 117.4 0.5V5.1C117.416 5.27282 117.381 5.44646 117.3 5.6L101 30.3H116.9C117.033 30.3 117.16 30.3527 117.254 30.4464C117.347 30.5402 117.4 30.6674 117.4 30.8V35.3C117.4 35.7 117.2 35.9 116.9 35.9L94.5 36Z" fill="#161C2D"/>
<path d="M133 0.500113C133.2 0.200113 133.4 0.00011302 133.7 0.00011302H138.6C138.756 -0.00634248 138.909 0.039331 139.036 0.129899C139.163 0.220466 139.256 0.35075 139.3 0.500113L151.5 35.4001C151.6 35.8001 151.5 36.0001 151.1 36.0001H145.9C145.731 36.0019 145.566 35.942 145.437 35.8316C145.309 35.7213 145.224 35.5679 145.2 35.4001L142.8 28.5001H129.3L126.9 35.4001C126.876 35.5679 126.792 35.7213 126.663 35.8316C126.534 35.942 126.37 36.0019 126.2 36.0001H121.1C120.7 36.0001 120.6 35.8001 120.7 35.4001L133 0.500113ZM140.9 22.9001L136.2 8.90011H136L131.2 22.9001H140.9Z" fill="#161C2D"/>
<path d="M51.2 15.5H32.5C31.9477 15.5 31.5 15.9477 31.5 16.5V19.48C31.5 20.0323 31.9477 20.48 32.5 20.48H51.2C51.7523 20.48 52.2 20.0323 52.2 19.48V16.5C52.2 15.9477 51.7523 15.5 51.2 15.5Z" fill="#161C2D"/>
<path d="M58.5004 -4.79231e-05H32.5004C32.3652 -0.0161284 32.2282 -0.00132694 32.0995 0.043242C31.9709 0.0878108 31.854 0.160986 31.7577 0.257256C31.6615 0.353527 31.5883 0.470385 31.5437 0.599031C31.4992 0.727677 31.4844 0.864758 31.5004 0.999952V7.59995C31.4844 7.73515 31.4992 7.87223 31.5437 8.00087C31.5883 8.12952 31.6615 8.24638 31.7577 8.34265C31.854 8.43892 31.9709 8.51209 32.0995 8.55666C32.2282 8.60123 32.3652 8.61603 32.5004 8.59995H35.1004C35.2356 8.61603 35.3727 8.60123 35.5014 8.55666C35.63 8.51209 35.7469 8.43892 35.8431 8.34265C35.9394 8.24638 36.0126 8.12952 36.0571 8.00087C36.1017 7.87223 36.1165 7.73515 36.1004 7.59995V5.29995H54.9004V7.59995C54.8844 7.73515 54.8992 7.87223 54.9437 8.00087C54.9883 8.12952 55.0615 8.24638 55.1577 8.34265C55.254 8.43892 55.3709 8.51209 55.4995 8.55666C55.6282 8.60123 55.7652 8.61603 55.9004 8.59995H58.5004C58.6399 8.61397 58.7808 8.59851 58.9139 8.55457C59.047 8.51063 59.1694 8.4392 59.2731 8.34491C59.3769 8.25061 59.4596 8.13556 59.516 8.00723C59.5724 7.87889 59.6011 7.74013 59.6004 7.59995V0.999952C59.6011 0.859775 59.5724 0.721016 59.516 0.592679C59.4596 0.464341 59.3769 0.349293 59.2731 0.254998C59.1694 0.160704 59.047 0.0892697 58.9139 0.0453315C58.7808 0.0013933 58.6399 -0.0140676 58.5004 -4.79231e-05Z" fill="#161C2D"/>
<path d="M58.5001 27.2998H55.9001C55.76 27.2991 55.6212 27.3279 55.4929 27.3843C55.3645 27.4407 55.2495 27.5234 55.1552 27.6271C55.0609 27.7309 54.9895 27.8532 54.9455 27.9864C54.9016 28.1195 54.8861 28.2603 54.9001 28.3998V30.5998H36.1001V28.3998C36.1141 28.2603 36.0987 28.1195 36.0547 27.9864C36.0108 27.8532 35.9394 27.7309 35.8451 27.6271C35.7508 27.5234 35.6357 27.4407 35.5074 27.3843C35.3791 27.3279 35.2403 27.2991 35.1001 27.2998H32.5001C32.36 27.2991 32.2212 27.3279 32.0929 27.3843C31.9645 27.4407 31.8495 27.5234 31.7552 27.6271C31.6609 27.7309 31.5894 27.8532 31.5455 27.9864C31.5016 28.1195 31.4861 28.2603 31.5001 28.3998V34.9998C31.5001 35.265 31.6055 35.5194 31.793 35.7069C31.9806 35.8945 32.2349 35.9998 32.5001 35.9998H58.5001C58.7753 36.001 59.041 35.8989 59.2446 35.7138C59.4483 35.5286 59.5751 35.2739 59.6001 34.9998V28.3998C59.6001 28.1081 59.4842 27.8283 59.2779 27.622C59.0717 27.4157 58.7919 27.2998 58.5001 27.2998Z" fill="#161C2D"/>
</g>
<defs>
<clipPath id="clip0_1607_3986">
<rect width="151.5" height="36" fill="white"/>
</clipPath>
</defs>
</svg>
