<svg width="161" height="126" viewBox="0 0 161 126" fill="none" xmlns="http://www.w3.org/2000/svg">
<path d="M155.29 37.844L153.96 27.894L144.38 30.894C140.87 32.004 137.22 32.564 133.52 32.564C127.4 32.564 121.28 30.964 115.8 27.954C115.72 27.924 115.63 27.874 115.54 27.824L115.52 27.814C115.46 27.774 115.4 27.744 115.33 27.704L111.16 25.334L106.98 27.704C101.39 30.884 95.1102 32.564 88.8002 32.564C85.1002 32.564 81.4502 32.004 77.9402 30.894L68.3602 27.894L67.0302 37.844C66.7402 39.984 66.5302 42.144 66.4002 44.314C66.3102 45.684 66.2602 47.064 66.2402 48.434L71.9002 52.154L74.8202 54.084C74.7402 52.664 74.7002 51.214 74.7002 49.784V49.704C74.7002 46.124 74.9402 42.524 75.4102 38.974C79.7402 40.334 84.2302 41.024 88.8002 41.024C96.6002 41.024 104.28 38.964 111.16 35.064C111.35 35.164 111.54 35.274 111.73 35.384C118.46 39.084 125.93 41.024 133.52 41.024C138.09 41.024 142.58 40.334 146.91 38.974C147.38 42.524 147.62 46.124 147.62 49.704C147.62 77.894 132.96 102.894 111.73 111.334C111.54 111.404 111.35 111.494 111.16 111.564C94.8402 105.344 82.3202 89.364 77.2102 69.614L73.7602 67.334H73.7502L67.2402 63.034C67.7202 66.204 68.3702 69.334 69.1902 72.394C71.1202 79.594 73.9302 86.374 77.5602 92.524C81.2402 98.754 85.6802 104.204 90.7302 108.744C96.0202 113.464 101.88 117.084 108.15 119.464L111.16 120.624L114.17 119.464C114.35 119.394 114.54 119.334 114.71 119.264L114.86 119.204C121.03 116.744 126.8 113.094 131.99 108.374C136.97 103.834 141.33 98.384 144.94 92.194C148.52 86.074 151.29 79.334 153.18 72.204C155.11 64.924 156.08 57.344 156.08 49.704C156.08 45.754 155.82 41.774 155.29 37.844Z" fill="url(#paint0_linear_1610_4063)"/>
<path d="M150.331 45.4542C150.291 44.5842 150.231 43.7142 150.161 42.8642C150.161 42.7742 150.151 42.7042 150.141 42.6342C150.031 41.2742 149.881 39.9442 149.701 38.5942L149.251 35.2842V35.2742L146.061 36.2742C145.551 36.4442 145.041 36.5842 144.531 36.7242C140.941 37.7042 137.251 38.2042 133.511 38.2042C127.341 38.2042 121.161 36.8042 115.491 34.1342C114.681 33.7542 113.881 33.3342 113.091 32.9042C113.051 32.8842 113.021 32.8742 112.981 32.8542C112.941 32.8242 112.901 32.8042 112.861 32.7742C112.761 32.7242 112.651 32.6642 112.551 32.6142L111.161 31.8242L109.771 32.6142C109.371 32.8342 108.961 33.0642 108.551 33.2742C107.741 33.7042 106.911 34.1142 106.071 34.4942C100.611 36.9342 94.7111 38.2042 88.7911 38.2042C85.0611 38.2042 81.3711 37.7042 77.7811 36.7242C77.2711 36.5842 76.7611 36.4442 76.2611 36.2742L73.0611 35.2742V35.2842L72.6211 38.5942C72.2011 41.6842 71.9611 44.8242 71.8911 47.9342C71.8811 48.5242 71.8711 49.1142 71.8711 49.7042C71.8711 50.5242 71.8811 51.3442 71.9011 52.1542L74.8211 54.0842C74.7411 52.6642 74.7011 51.2142 74.7011 49.7842V49.7042C74.7011 46.1242 74.9411 42.5242 75.4111 38.9742C79.7411 40.3342 84.2311 41.0242 88.8011 41.0242C96.6011 41.0242 104.281 38.9642 111.161 35.0642C111.351 35.1642 111.541 35.2742 111.731 35.3842C118.461 39.0842 125.931 41.0242 133.521 41.0242C138.091 41.0242 142.581 40.3342 146.911 38.9742C147.381 42.5242 147.621 46.1242 147.621 49.7042C147.621 77.8942 132.961 102.894 111.731 111.334C111.541 111.404 111.351 111.494 111.161 111.564C94.8411 105.344 82.3211 89.3642 77.2111 69.6142L73.7611 67.3342C74.0311 68.5542 74.3211 69.7542 74.6411 70.9442C74.8111 71.5742 74.9811 72.2042 75.1611 72.8142C75.3411 73.4342 75.5311 74.0442 75.7311 74.6542C76.1311 75.8942 76.5511 77.0942 77.0011 78.3042C78.5011 82.2842 80.3111 86.0842 82.4211 89.6542C85.8111 95.3942 89.8711 100.394 94.5011 104.534C95.4011 105.334 96.3111 106.114 97.2411 106.834C97.8511 107.314 98.4811 107.774 99.1111 108.244C100.371 109.144 101.671 109.974 102.991 110.754C102.991 110.754 102.991 110.764 103.001 110.764C103.541 111.084 104.091 111.394 104.641 111.684C106.441 112.644 108.281 113.494 110.161 114.204L111.161 114.584L112.161 114.204C112.291 114.144 112.421 114.094 112.551 114.054C112.571 114.034 112.591 114.024 112.611 114.024L112.781 113.954C118.311 111.764 123.501 108.464 128.201 104.204C130.731 101.894 133.081 99.3342 135.231 96.5242C135.671 95.9642 136.101 95.3942 136.521 94.8242C137.361 93.6542 138.171 92.4542 138.941 91.2242C139.331 90.6142 139.711 89.9742 140.081 89.3442C140.701 88.2842 141.301 87.1942 141.861 86.0842C142.051 85.7142 142.231 85.3442 142.421 84.9742C144.631 80.5242 146.411 75.7542 147.731 70.7642C149.531 63.9542 150.441 56.8742 150.441 49.7042C150.441 48.2842 150.401 46.8742 150.331 45.4542Z" fill="url(#paint1_linear_1610_4063)"/>
<path opacity="0.66" d="M159.43 37.3142L157.43 22.4542L143.12 26.9242C140.03 27.8942 136.79 28.3942 133.51 28.3942C128.1 28.3942 122.68 26.9742 117.84 24.3242C117.74 24.2742 117.62 24.2042 117.51 24.1442C117.48 24.1342 117.43 24.1142 117.39 24.0842L111.16 20.5342L104.91 24.0842C99.9504 26.8942 94.3804 28.3942 88.7904 28.3942C85.5204 28.3942 82.2904 27.8942 79.1804 26.9242L64.8704 22.4542L62.8904 37.3042C62.7004 38.7542 62.5404 40.2242 62.4104 41.6942C62.2904 43.0342 62.2104 44.3842 62.1504 45.7442L66.2404 48.4342L71.9004 52.1542C71.8804 51.3442 71.8704 50.5242 71.8704 49.7042C71.8704 49.1142 71.8804 48.5242 71.8904 47.9342C71.9604 44.8242 72.2004 41.6842 72.6204 38.5942L73.0604 35.2842L76.2504 36.2842C76.7604 36.4542 77.2704 36.5942 77.7804 36.7242C81.3704 37.7042 85.0604 38.2042 88.7904 38.2042C94.7104 38.2042 100.61 36.9342 106.07 34.4942C106.91 34.1142 107.74 33.7042 108.55 33.2742C108.96 33.0742 109.37 32.8442 109.77 32.6242L111.16 31.8342L112.55 32.6242C112.65 32.6842 112.75 32.7242 112.86 32.7842C112.9 32.8142 112.94 32.8342 112.98 32.8542C113.02 32.8742 113.05 32.9042 113.09 32.9242C113.88 33.3442 114.68 33.7642 115.49 34.1342C121.16 36.8042 127.34 38.2042 133.51 38.2042C137.25 38.2042 140.94 37.7042 144.53 36.7242C145.04 36.5942 145.55 36.4542 146.06 36.2842L149.25 35.2842L149.7 38.5942C149.88 39.9442 150.03 41.2742 150.14 42.6342C150.15 42.7042 150.16 42.7742 150.16 42.8642C150.23 43.7142 150.29 44.5842 150.33 45.4542C150.4 46.8742 150.44 48.2842 150.44 49.7042C150.44 56.8742 149.53 63.9542 147.73 70.7642C146.41 75.7542 144.63 80.5242 142.42 84.9742C142.23 85.3442 142.05 85.7142 141.86 86.0842C141.29 87.1942 140.69 88.2842 140.07 89.3442C139.7 89.9742 139.32 90.6142 138.94 91.2242C138.16 92.4542 137.36 93.6542 136.52 94.8242C136.1 95.3942 135.67 95.9642 135.23 96.5242C133.08 99.3342 130.73 101.894 128.2 104.204C123.5 108.464 118.31 111.764 112.78 113.954L112.61 114.024C112.59 114.024 112.57 114.034 112.55 114.054C112.42 114.094 112.29 114.144 112.16 114.204L111.16 114.584L110.16 114.204C108.28 113.494 106.44 112.644 104.64 111.684C104.09 111.394 103.54 111.084 103 110.764C102.99 110.764 102.99 110.754 102.99 110.754C101.67 109.974 100.37 109.144 99.1104 108.244C98.4804 107.784 97.8604 107.324 97.2404 106.834C96.3104 106.114 95.4004 105.334 94.5004 104.534C89.8704 100.394 85.8104 95.3942 82.4204 89.6542C80.3104 86.0842 78.5004 82.2842 77.0004 78.3042C76.5504 77.0942 76.1204 75.8942 75.7304 74.6542C75.5304 74.0442 75.3404 73.4342 75.1604 72.8142C74.9704 72.2042 74.8004 71.5742 74.6304 70.9442C74.3104 69.7542 74.0204 68.5542 73.7604 67.3342H73.7504L67.2404 63.0342L62.6204 60.0142C63.1304 64.5742 63.9704 69.0842 65.1504 73.4742C67.1804 81.0542 70.1504 88.1542 73.9604 94.6442C77.8604 101.244 82.5604 107.024 87.9404 111.864C93.6004 116.924 99.9004 120.804 106.65 123.374L111.16 125.084L115.62 123.384C115.8 123.324 115.98 123.254 116.15 123.184L116.43 123.074C123.05 120.434 129.23 116.524 134.81 111.454C140.09 106.644 144.72 100.874 148.55 94.2842C152.31 87.8442 155.22 80.7742 157.21 73.2742C159.23 65.6542 160.26 57.7242 160.26 49.7042C160.26 45.5742 159.98 41.3942 159.43 37.3142Z" fill="url(#paint2_linear_1610_4063)"/>
<path d="M17.0303 25.6798L24.6303 23.7998L24.1803 21.0698L25.8603 22.3698L20.9503 28.7188L17.0303 25.6798Z" fill="#D55ADB"/>
<path d="M115.281 83.469L105.151 83.779L47.6307 45.92H47.6107L29.4207 28.44L45.3507 46.39L31.1707 49.31L1.2207 29.599L13.5107 26.56L21.4607 32.709L29.8607 21.86L23.5007 16.94V16.93L20.7007 0L50.6407 19.709L54.0407 36.18L111.561 74.039L115.281 83.469Z" fill="#D55ADB"/>
<path d="M25.8606 22.3702L20.9506 28.7192L17.0306 25.6802L14.6006 23.8002L19.5106 17.4502L24.1806 21.0702L25.8606 22.3702Z" fill="#34187F"/>
<path d="M25.8606 22.3702L20.9506 28.7192L17.0306 25.6802L14.6006 23.8002L19.5106 17.4502L24.1806 21.0702L25.8606 22.3702Z" fill="#D55ADB"/>
<path d="M18.242 10.5331L13.7998 7.09375L10.3605 11.5359L14.8026 14.9752L18.242 10.5331Z" fill="#D55ADB"/>
<path d="M6.81192 15.7034L3.72266 13.3115L1.33078 16.4008L4.42005 18.7927L6.81192 15.7034Z" fill="#D55ADB"/>
<path d="M4.44007 5.80627L1.9375 3.86865L-0.0001183 6.37122L2.50245 8.30884L4.44007 5.80627Z" fill="#D55ADB"/>
<defs>
<linearGradient id="paint0_linear_1610_4063" x1="110.994" y1="23.92" x2="111.665" y2="124.76" gradientUnits="userSpaceOnUse">
<stop stop-color="#D55ADB"/>
<stop offset="0.1588" stop-color="#D259DC"/>
<stop offset="0.2979" stop-color="#C758DD"/>
<stop offset="0.4297" stop-color="#B555E0"/>
<stop offset="0.5569" stop-color="#9C51E5"/>
<stop offset="0.681" stop-color="#7B4CEA"/>
<stop offset="0.8025" stop-color="#5346F1"/>
<stop offset="0.92" stop-color="#243FF9"/>
<stop offset="1" stop-color="#0039FF"/>
</linearGradient>
<linearGradient id="paint1_linear_1610_4063" x1="106.623" y1="13.4985" x2="119.773" y2="115.095" gradientUnits="userSpaceOnUse">
<stop stop-color="#D55ADB"/>
<stop offset="0.0978" stop-color="#CB58DD"/>
<stop offset="0.2648" stop-color="#B054E1"/>
<stop offset="0.4808" stop-color="#834DE9"/>
<stop offset="0.7373" stop-color="#4644F3"/>
<stop offset="1" stop-color="#0039FF"/>
</linearGradient>
<linearGradient id="paint2_linear_1610_4063" x1="111.026" y1="20.5356" x2="111.721" y2="125.081" gradientUnits="userSpaceOnUse">
<stop stop-color="#F583D8"/>
<stop offset="0.0088" stop-color="#F182D9"/>
<stop offset="0.1703" stop-color="#B26FE3"/>
<stop offset="0.3299" stop-color="#7C5EEB"/>
<stop offset="0.4839" stop-color="#4F51F2"/>
<stop offset="0.631" stop-color="#2D47F8"/>
<stop offset="0.7696" stop-color="#143FFC"/>
<stop offset="0.8962" stop-color="#053BFE"/>
<stop offset="1" stop-color="#0039FF"/>
</linearGradient>
</defs>
</svg>
