<svg width="107" height="107" viewBox="0 0 107 107" fill="none" xmlns="http://www.w3.org/2000/svg">
<path d="M107 0V107H0L107 0Z" fill="#D0D9D6"/>
<path d="M0 107V0H107L0 107Z" fill="#F6F6F6"/>
<path d="M92.6221 76.2376C91.9533 89.2782 84.2627 98.6407 70.2189 98.6407C65.6644 98.6895 61.2132 97.2838 57.5127 94.6282L59.5189 89.947C61.7038 91.784 64.3759 92.9458 67.2096 93.2907H70.8877C81.2533 93.6251 86.9377 85.2657 86.9377 75.5689C86.9929 74.1119 86.8807 72.6534 86.6033 71.222C86.0261 69.2498 85.2415 67.3444 84.2627 65.5376L83.2596 63.5314C81.4592 60.922 79.3232 58.5611 76.9064 56.5095C76.0569 55.7863 75.1636 55.1162 74.2314 54.5032C71.8908 52.8314 69.2158 50.1564 66.8752 48.1501C66.0131 47.4564 65.2283 46.6716 64.5346 45.8095H64.2002C60.9732 41.9688 59.1979 37.1165 59.1846 32.1001C59.044 29.3251 59.4814 26.551 60.469 23.9539C61.4566 21.3567 62.973 18.993 64.922 17.0126C66.871 15.0321 69.2101 13.4781 71.7912 12.4491C74.3722 11.42 77.1389 10.9383 79.9158 11.0345C83.5669 11.1642 87.1286 12.1982 90.2814 14.0439L88.2752 19.0595C85.8104 17.0849 82.7395 16.0219 79.5814 16.0501C77.5491 15.8849 75.5054 16.175 73.5993 16.8995C71.6933 17.6241 69.9729 18.7646 68.5634 20.2382C67.1539 21.7117 66.0909 23.4811 65.4518 25.4174C64.8127 27.3538 64.6136 29.4083 64.8689 31.4314C64.7419 35.5325 66.0419 39.5506 68.5471 42.8001C70.2189 45.4751 77.9096 50.8251 80.5846 53.1657L81.5877 53.8345C83.937 56.0765 86.0646 58.54 87.9408 61.1907C89.3801 63.6467 90.6104 66.2193 91.6189 68.8814C92.4239 71.246 92.7646 73.7438 92.6221 76.2376Z" fill="#343434"/>
<path d="M25.7455 92.9556V11.0337H20.3955V97.6368H25.7455H51.4924V92.9556H25.7455Z" fill="black"/>
</svg>
