<svg width="9" height="15" viewBox="0 0 9 15" fill="none" xmlns="http://www.w3.org/2000/svg">
<path d="M0.292893 12.6698C-0.0976309 13.0604 -0.097631 13.6935 0.292893 14.0841C0.683417 14.4746 1.31658 14.4746 1.70711 14.0841L0.292893 12.6698ZM7 7.37695L7.70711 8.08406L8.41421 7.37695L7.70711 6.66985L7 7.37695ZM1.70711 0.669846C1.31658 0.279321 0.683418 0.279321 0.292895 0.669846C-0.0976299 1.06037 -0.09763 1.69354 0.292894 2.08406L1.70711 0.669846ZM1.70711 14.0841L7.70711 8.08406L6.29289 6.66985L0.292893 12.6698L1.70711 14.0841ZM7.70711 6.66985L1.70711 0.669846L0.292894 2.08406L6.29289 8.08406L7.70711 6.66985Z" fill="#5B657C"/>
</svg>
