<svg width="9" height="14" viewBox="0 0 9 14" fill="none" xmlns="http://www.w3.org/2000/svg">
<path d="M8.70662 1.70711C9.09714 1.31658 9.09714 0.683417 8.70662 0.292893C8.31609 -0.0976311 7.68293 -0.0976311 7.29241 0.292893L8.70662 1.70711ZM1.99951 7L1.2924 6.29289L0.585298 7L1.2924 7.70711L1.99951 7ZM7.29241 13.7071C7.68293 14.0976 8.31609 14.0976 8.70662 13.7071C9.09714 13.3166 9.09714 12.6834 8.70662 12.2929L7.29241 13.7071ZM7.29241 0.292893L1.2924 6.29289L2.70662 7.70711L8.70662 1.70711L7.29241 0.292893ZM1.2924 7.70711L7.29241 13.7071L8.70662 12.2929L2.70662 6.29289L1.2924 7.70711Z" fill="#2F55D4"/>
</svg>
