<svg width="9" height="14" viewBox="0 0 9 14" fill="none" xmlns="http://www.w3.org/2000/svg">
<path d="M0.292405 1.70711C-0.0981193 1.31658 -0.0981193 0.683417 0.292405 0.292893C0.682929 -0.0976311 1.31609 -0.0976311 1.70662 0.292893L0.292405 1.70711ZM6.99951 7L7.70662 6.29289L8.41373 7L7.70662 7.70711L6.99951 7ZM1.70662 13.7071C1.31609 14.0976 0.682929 14.0976 0.292405 13.7071C-0.0981193 13.3166 -0.0981193 12.6834 0.292405 12.2929L1.70662 13.7071ZM1.70662 0.292893L7.70662 6.29289L6.2924 7.70711L0.292405 1.70711L1.70662 0.292893ZM7.70662 7.70711L1.70662 13.7071L0.292405 12.2929L6.2924 6.29289L7.70662 7.70711Z" fill="white"/>
</svg>
