<svg width="31" height="33" viewBox="0 0 31 33" fill="none" xmlns="http://www.w3.org/2000/svg">
<g clip-path="url(#clip0_1192_4843)">
<path d="M5.8621 2.43153C2.64055 2.68507 0.0256009 5.53723 0.0521094 8.76869L0.201692 27.0033C0.2282 30.2347 2.88647 32.671 6.10808 32.4174L24.2871 30.9867C27.5087 30.7331 30.1226 27.882 30.0961 24.6506L29.9466 6.41595C29.92 3.18454 27.2627 0.747265 24.0411 1.00081L5.8621 2.43153ZM7.37612 7.26384C8.92078 7.14227 9.88057 8.08454 9.92091 9.41925C9.93163 10.7268 8.95934 11.8497 7.38485 11.9736L7.35587 11.9759C5.84061 12.0951 4.85265 11.1265 4.84192 9.81898C4.83096 8.48198 5.83163 7.38539 7.37609 7.26384L7.37612 7.26384ZM20.7386 12.4653C23.7093 12.2315 25.9522 14.0038 25.9866 18.1891L26.0506 26.0023L21.536 26.3576L21.4762 19.0683C21.4612 17.2365 20.7976 16.0383 19.1637 16.1668C17.9165 16.265 17.1799 17.1658 16.8602 18.0052C16.7434 18.3057 16.7174 18.7146 16.7207 19.1218L16.7831 26.7317L12.2685 27.087C12.2685 27.087 12.2265 14.7344 12.1567 13.4605L16.6723 13.1051L16.6881 15.0348C17.2804 14.0591 18.3428 12.6538 20.7386 12.4653L20.7386 12.4653ZM5.1428 14.0135L9.65743 13.6582L9.7692 27.2838L5.25458 27.6391L5.1428 14.0135Z" fill="#2F55D4"/>
</g>
<defs>
<clipPath id="clip0_1192_4843">
<rect width="30" height="30" fill="white" transform="matrix(0.996917 -0.0784591 0.00820296 0.999966 0 2.88672)"/>
</clipPath>
</defs>
</svg>
