<svg width="435" height="18" viewBox="0 0 435 18" fill="none" xmlns="http://www.w3.org/2000/svg">
<path d="M16.0028 8.97695C16.0028 10.657 15.6108 12.137 14.8268 13.417C14.0588 14.681 12.9948 15.657 11.6348 16.345C10.2908 17.033 8.78675 17.377 7.12275 17.377H0.13875V0.576952H7.12275C8.78675 0.576952 10.2908 0.920952 11.6348 1.60895C12.9948 2.29695 14.0588 3.28095 14.8268 4.56095C15.6108 5.82495 16.0028 7.29695 16.0028 8.97695ZM12.9068 8.97695C12.9068 7.80895 12.6588 6.80895 12.1628 5.97695C11.6668 5.14495 10.9788 4.51295 10.0988 4.08095C9.21875 3.63295 8.22675 3.40895 7.12275 3.40895H3.23475V14.545H7.12275C8.22675 14.545 9.21875 14.329 10.0988 13.897C10.9788 13.449 11.6668 12.809 12.1628 11.977C12.6588 11.145 12.9068 10.145 12.9068 8.97695ZM23.1231 17.377V0.576952H36.0591V3.40895H26.2191V14.401H36.0591V17.377H23.1231ZM33.8511 10.273H27.7791V7.41695H33.8511V10.273ZM49.3274 17.377L41.5034 0.576952H45.0554L50.8634 13.465L56.6474 0.576952H60.1994L52.3754 17.377H49.3274ZM79.4715 0.576952V2.95295L69.9195 14.545H79.4715V17.377H65.4075V15.145L75.0795 3.40895H65.4075V0.576952H79.4715ZM99.8271 17.377L94.0431 4.48895L88.2351 17.377H84.6831L92.5071 0.576952H95.5551L103.379 17.377H99.8271ZM124.147 17.377V0.576952H137.083V3.40895H127.243V14.401H137.083V17.377H124.147ZM134.875 10.273H128.803V7.41695H134.875V10.273ZM146.829 6.14495V17.377H143.733V0.576952H146.901L152.133 9.88895L157.365 0.576952H160.533V17.377H157.437V6.14495L152.949 13.897H151.317L146.829 6.14495ZM181.557 6.38495C181.557 7.55295 181.293 8.57695 180.765 9.45695C180.237 10.337 179.477 11.017 178.485 11.497C177.493 11.977 176.317 12.217 174.957 12.217H171.477V17.377H168.381V0.576952H174.957C176.317 0.576952 177.493 0.816952 178.485 1.29695C179.477 1.77695 180.237 2.45695 180.765 3.33695C181.293 4.21695 181.557 5.23295 181.557 6.38495ZM178.461 6.38495C178.461 5.68095 178.317 5.11295 178.029 4.68095C177.741 4.24895 177.245 3.92895 176.541 3.72095C175.853 3.51295 174.885 3.40895 173.637 3.40895H171.477V9.36095H173.637C174.885 9.36095 175.853 9.25695 176.541 9.04895C177.245 8.84095 177.741 8.52095 178.029 8.08895C178.317 7.65695 178.461 7.08895 178.461 6.38495ZM188.67 17.377V0.576952H191.766V17.377H188.67ZM212.784 6.38495C212.784 7.71295 212.448 8.84895 211.776 9.79295C211.12 10.721 210.184 11.385 208.968 11.785L208.872 11.833L213.888 17.377H209.64L205.44 12.217H202.704V17.377H199.608V0.576952H206.184C207.544 0.576952 208.72 0.816952 209.712 1.29695C210.704 1.77695 211.464 2.45695 211.992 3.33695C212.52 4.21695 212.784 5.23295 212.784 6.38495ZM209.688 6.38495C209.688 5.68095 209.544 5.11295 209.256 4.68095C208.968 4.24895 208.472 3.92895 207.768 3.72095C207.08 3.51295 206.112 3.40895 204.864 3.40895H202.704V9.36095H204.864C206.112 9.36095 207.08 9.25695 207.768 9.04895C208.472 8.84095 208.968 8.52095 209.256 8.08895C209.544 7.65695 209.688 7.08895 209.688 6.38495ZM220.529 17.377V0.576952H233.465V3.40895H223.625V14.401H233.465V17.377H220.529ZM231.257 10.273H225.185V7.41695H231.257V10.273ZM278.085 0.576952H281.397L275.277 17.377H271.965L267.573 4.60895L263.181 17.377H259.869L253.749 0.576952H257.061L261.669 13.513L266.013 0.576952H269.133L273.477 13.513L278.085 0.576952ZM304.702 8.97695C304.702 10.657 304.294 12.153 303.478 13.465C302.678 14.777 301.59 15.801 300.214 16.537C298.838 17.273 297.318 17.641 295.654 17.641C293.99 17.641 292.47 17.273 291.094 16.537C289.718 15.801 288.622 14.777 287.806 13.465C287.006 12.153 286.606 10.657 286.606 8.97695C286.606 7.29695 287.006 5.80095 287.806 4.48895C288.622 3.17695 289.718 2.15295 291.094 1.41695C292.47 0.680953 293.99 0.312953 295.654 0.312953C297.318 0.312953 298.838 0.680953 300.214 1.41695C301.59 2.15295 302.678 3.17695 303.478 4.48895C304.294 5.80095 304.702 7.29695 304.702 8.97695ZM301.606 8.97695C301.606 7.80895 301.342 6.78495 300.814 5.90495C300.286 5.02495 299.566 4.35295 298.654 3.88895C297.758 3.40895 296.758 3.16895 295.654 3.16895C294.55 3.16895 293.542 3.40895 292.63 3.88895C291.734 4.35295 291.022 5.02495 290.494 5.90495C289.966 6.78495 289.702 7.80895 289.702 8.97695C289.702 10.145 289.966 11.169 290.494 12.049C291.022 12.929 291.734 13.609 292.63 14.089C293.542 14.553 294.55 14.785 295.654 14.785C296.758 14.785 297.758 14.553 298.654 14.089C299.566 13.609 300.286 12.929 300.814 12.049C301.342 11.169 301.606 10.145 301.606 8.97695ZM324.987 6.38495C324.987 7.71295 324.651 8.84895 323.979 9.79295C323.323 10.721 322.387 11.385 321.171 11.785L321.075 11.833L326.091 17.377H321.843L317.643 12.217H314.907V17.377H311.811V0.576952H318.387C319.747 0.576952 320.923 0.816952 321.915 1.29695C322.907 1.77695 323.667 2.45695 324.195 3.33695C324.723 4.21695 324.987 5.23295 324.987 6.38495ZM321.891 6.38495C321.891 5.68095 321.747 5.11295 321.459 4.68095C321.171 4.24895 320.675 3.92895 319.971 3.72095C319.283 3.51295 318.315 3.40895 317.067 3.40895H314.907V9.36095H317.067C318.315 9.36095 319.283 9.25695 319.971 9.04895C320.675 8.84095 321.171 8.52095 321.459 8.08895C321.747 7.65695 321.891 7.08895 321.891 6.38495ZM335.829 0.576952V14.545H343.725V17.377H332.733V0.576952H335.829ZM365.979 8.97695C365.979 10.657 365.587 12.137 364.803 13.417C364.035 14.681 362.971 15.657 361.611 16.345C360.267 17.033 358.763 17.377 357.099 17.377H350.115V0.576952H357.099C358.763 0.576952 360.267 0.920952 361.611 1.60895C362.971 2.29695 364.035 3.28095 364.803 4.56095C365.587 5.82495 365.979 7.29695 365.979 8.97695ZM362.883 8.97695C362.883 7.80895 362.635 6.80895 362.139 5.97695C361.643 5.14495 360.955 4.51295 360.075 4.08095C359.195 3.63295 358.203 3.40895 357.099 3.40895H353.211V14.545H357.099C358.203 14.545 359.195 14.329 360.075 13.897C360.955 13.449 361.643 12.809 362.139 11.977C362.635 11.145 362.883 10.145 362.883 8.97695ZM376.196 6.14495V17.377H373.1V0.576952H376.268L381.5 9.88895L386.732 0.576952H389.9V17.377H386.804V6.14495L382.316 13.897H380.684L376.196 6.14495ZM411.452 17.377L405.668 4.48895L399.86 17.377H396.308L404.132 0.576952H407.18L415.004 17.377H411.452ZM434.588 6.38495C434.588 7.55295 434.324 8.57695 433.796 9.45695C433.268 10.337 432.508 11.017 431.516 11.497C430.524 11.977 429.348 12.217 427.988 12.217H424.508V17.377H421.412V0.576952H427.988C429.348 0.576952 430.524 0.816952 431.516 1.29695C432.508 1.77695 433.268 2.45695 433.796 3.33695C434.324 4.21695 434.588 5.23295 434.588 6.38495ZM431.492 6.38495C431.492 5.68095 431.348 5.11295 431.06 4.68095C430.772 4.24895 430.276 3.92895 429.572 3.72095C428.884 3.51295 427.916 3.40895 426.668 3.40895H424.508V9.36095H426.668C427.916 9.36095 428.884 9.25695 429.572 9.04895C430.276 8.84095 430.772 8.52095 431.06 8.08895C431.348 7.65695 431.492 7.08895 431.492 6.38495Z" fill="#5B657C"/>
</svg>
