<svg width="21" height="20" viewBox="0 0 21 20" fill="none" xmlns="http://www.w3.org/2000/svg">
<path d="M14.496 6.79289C14.8865 6.40237 15.5197 6.40237 15.9102 6.79289C16.3008 7.18342 16.3008 7.81658 15.9102 8.20711L14.496 6.79289ZM10.2031 12.5L10.9102 13.2071L10.2031 13.9142L9.49602 13.2071L10.2031 12.5ZM4.49602 8.20711C4.10549 7.81658 4.10549 7.18342 4.49602 6.79289C4.88654 6.40237 5.51971 6.40237 5.91023 6.79289L4.49602 8.20711ZM15.9102 8.20711L10.9102 13.2071L9.49602 11.7929L14.496 6.79289L15.9102 8.20711ZM9.49602 13.2071L4.49602 8.20711L5.91023 6.79289L10.9102 11.7929L9.49602 13.2071Z" fill="#161C2D"/>
</svg>
