<svg width="24" height="25" viewBox="0 0 24 25" fill="none" xmlns="http://www.w3.org/2000/svg">
<path d="M15.7071 7.08406C16.0976 6.69354 16.0976 6.06037 15.7071 5.66985C15.3166 5.27932 14.6834 5.27932 14.2929 5.66985L15.7071 7.08406ZM9 12.377L8.29289 11.6698L7.58579 12.377L8.29289 13.0841L9 12.377ZM14.2929 19.0841C14.6834 19.4746 15.3166 19.4746 15.7071 19.0841C16.0976 18.6935 16.0976 18.0604 15.7071 17.6698L14.2929 19.0841ZM14.2929 5.66985L8.29289 11.6698L9.70711 13.0841L15.7071 7.08406L14.2929 5.66985ZM8.29289 13.0841L14.2929 19.0841L15.7071 17.6698L9.70711 11.6698L8.29289 13.0841Z" fill="#5B657C"/>
</svg>
