<svg width="25" height="24" viewBox="0 0 25 24" fill="none" xmlns="http://www.w3.org/2000/svg">
<path d="M17.996 15.7071C18.3865 16.0976 19.0197 16.0976 19.4102 15.7071C19.8008 15.3166 19.8008 14.6834 19.4102 14.2929L17.996 15.7071ZM12.7031 9L13.4102 8.29289L12.7031 7.58579L11.996 8.29289L12.7031 9ZM5.99602 14.2929C5.60549 14.6834 5.60549 15.3166 5.99602 15.7071C6.38654 16.0976 7.01971 16.0976 7.41023 15.7071L5.99602 14.2929ZM19.4102 14.2929L13.4102 8.29289L11.996 9.70711L17.996 15.7071L19.4102 14.2929ZM11.996 8.29289L5.99602 14.2929L7.41023 15.7071L13.4102 9.70711L11.996 8.29289Z" fill="white"/>
</svg>
