<svg width="24" height="25" viewBox="0 0 24 25" fill="none" xmlns="http://www.w3.org/2000/svg">
<path d="M8.29289 7.08406C7.90237 6.69354 7.90237 6.06037 8.29289 5.66985C8.68342 5.27932 9.31658 5.27932 9.70711 5.66985L8.29289 7.08406ZM15 12.377L15.7071 11.6698L16.4142 12.377L15.7071 13.0841L15 12.377ZM9.70711 19.0841C9.31658 19.4746 8.68342 19.4746 8.29289 19.0841C7.90237 18.6935 7.90237 18.0604 8.29289 17.6698L9.70711 19.0841ZM9.70711 5.66985L15.7071 11.6698L14.2929 13.0841L8.29289 7.08406L9.70711 5.66985ZM15.7071 13.0841L9.70711 19.0841L8.29289 17.6698L14.2929 11.6698L15.7071 13.0841Z" fill="#2F55D4"/>
</svg>
