<svg width="31" height="33" viewBox="0 0 31 33" fill="none" xmlns="http://www.w3.org/2000/svg">
<g clip-path="url(#clip0_1192_4849)">
<path d="M24.8467 0.44077C26.3914 0.319199 27.7167 0.765363 28.8226 1.77926C29.9285 2.79316 30.4878 4.07482 30.5005 5.62425L30.6543 24.3736C30.667 25.923 30.1295 27.291 29.0416 28.4776C27.9538 29.6641 26.6375 30.3182 25.0928 30.4398L21.4323 30.7278L21.3369 19.1071L25.2117 18.8022L25.7586 14.2251L21.2998 14.5761L21.2761 11.6855C21.2701 10.9564 21.4181 10.3975 21.7202 10.0089C22.0222 9.62036 22.6146 9.39134 23.4973 9.32187L25.8726 9.11539L25.8394 5.07255C25.0207 5.01973 23.8649 5.05206 22.3721 5.16955C20.6068 5.30849 19.1994 5.9404 18.15 7.06529C17.1006 8.19018 16.5837 9.70312 16.5993 11.6041L16.6267 14.9438L12.7325 15.2503L12.7697 19.7814L16.6639 19.4749L16.7592 31.0956L6.40062 31.9109C4.85592 32.0324 3.53062 31.5863 2.42473 30.5724C1.31883 29.5585 0.759532 28.2768 0.746822 26.7274L0.593017 7.97802C0.580306 6.42859 1.11787 5.06061 2.20572 3.87406C3.29356 2.68751 4.60983 2.03345 6.15453 1.91188L24.8467 0.44077Z" fill="#2F55D4"/>
</g>
<defs>
<clipPath id="clip0_1192_4849">
<rect width="30" height="30" fill="white" transform="matrix(0.996917 -0.0784591 0.00820296 0.999966 0.546875 2.35321)"/>
</clipPath>
</defs>
</svg>
