<svg width="32" height="34" viewBox="0 0 32 34" fill="none" xmlns="http://www.w3.org/2000/svg">
<g clip-path="url(#clip0_1192_4845)">
<path d="M25.8488 10.4945C25.1245 10.8772 24.341 11.1604 23.4982 11.344C24.3767 10.7537 24.974 9.94448 25.2903 8.91637C24.4506 9.47755 23.5836 9.87802 22.6894 10.1178C21.8905 9.32075 20.8939 8.96923 19.6997 9.06321C18.5704 9.15209 17.6099 9.62832 16.8181 10.4919C16.0264 11.3555 15.6351 12.3537 15.6444 13.4864C15.6475 13.864 15.6825 14.174 15.7495 14.4162C14.0742 14.4569 12.5001 14.1573 11.0271 13.5176C9.55406 12.8779 8.29964 11.9669 7.2638 10.7846C6.8927 11.4652 6.71014 12.1701 6.71612 12.8993C6.7283 14.3836 7.32827 15.4764 8.51603 16.1777C7.90583 16.2127 7.2554 16.0945 6.56476 15.8231L6.56508 15.8622C6.57309 16.8387 6.90474 17.6823 7.56002 18.3929C8.2153 19.1035 9.01749 19.5127 9.96657 19.6204C9.59099 19.7542 9.26041 19.8323 8.97483 19.8548C8.80608 19.868 8.55274 19.8619 8.21482 19.8364C8.49414 20.6352 8.98323 21.2742 9.68207 21.7534C10.3809 22.2326 11.1717 22.444 12.0545 22.3875C10.5584 23.6779 8.86921 24.3971 6.98701 24.5452C6.64951 24.5718 6.32484 24.5778 6.01298 24.5633C7.94416 25.636 10.0391 26.0835 12.2977 25.9057C13.7516 25.7913 15.1126 25.4529 16.3809 24.8906C17.6493 24.3282 18.7346 23.6239 19.6369 22.7777C20.5392 21.9315 21.3139 20.978 21.9612 19.9174C22.6084 18.8567 23.0865 17.7637 23.3955 16.6385C23.7045 15.5132 23.8546 14.4037 23.8456 13.31C23.8437 13.0757 23.8357 12.9004 23.8218 12.7842C24.6348 12.134 25.3104 11.3707 25.8488 10.4945ZM30.8023 6.31327L30.9561 25.0626C30.9688 26.6121 30.4312 27.9801 29.3434 29.1666C28.2556 30.3532 26.9393 31.0072 25.3946 31.1288L6.70238 32.5999C5.15768 32.7215 3.83238 32.2753 2.72649 31.2614C1.62059 30.2475 1.06129 28.9658 1.04858 27.4164L0.894774 8.66705C0.882064 7.11762 1.41963 5.74963 2.50747 4.56308C3.59532 3.37653 4.91159 2.72247 6.45629 2.6009L25.1485 1.1298C26.6932 1.00823 28.0185 1.45439 29.1244 2.46829C30.2303 3.48218 30.7896 4.76385 30.8023 6.31327Z" fill="#2F55D4"/>
</g>
<defs>
<clipPath id="clip0_1192_4845">
<rect width="30" height="30" fill="white" transform="matrix(0.996917 -0.0784591 0.00820296 0.999966 0.848633 3.04224)"/>
</clipPath>
</defs>
</svg>
