<svg width="30" height="25" viewBox="0 0 30 25" fill="none" xmlns="http://www.w3.org/2000/svg">
<path d="M27.7532 0.30835H2.24678C1.00588 0.30835 0 1.54359 0 3.06744V8.35399H30V3.06744C30 1.54359 28.9941 0.30835 27.7532 0.30835Z" fill="#FAB446"/>
<path d="M0 21.6862C0 23.21 1.00588 24.4453 2.24678 24.4453H27.7532C28.9941 24.4453 30 23.2101 30 21.6862V16.3997H0V21.6862Z" fill="#73AF00"/>
<path d="M30 8.35376H0V16.399H30V8.35376Z" fill="#F5F5F5"/>
<path d="M14.9989 15.7908C13.4659 15.7908 12.2188 14.2593 12.2188 12.3767C12.2188 10.4941 13.4659 8.96265 14.9989 8.96265C16.5319 8.96265 17.7791 10.4941 17.7791 12.3767C17.7791 14.2593 16.5319 15.7908 14.9989 15.7908ZM14.9989 9.59779C13.751 9.59779 12.736 10.8443 12.736 12.3767C12.736 13.9092 13.751 15.1557 14.9989 15.1557C16.2468 15.1557 17.2618 13.9092 17.2618 12.3767C17.2618 10.8443 16.2468 9.59779 14.9989 9.59779Z" fill="#41479B"/>
<path d="M14.9988 12.7638C15.1729 12.7638 15.314 12.5905 15.314 12.3768C15.314 12.163 15.1729 11.9897 14.9988 11.9897C14.8247 11.9897 14.6836 12.163 14.6836 12.3768C14.6836 12.5905 14.8247 12.7638 14.9988 12.7638Z" fill="#41479B"/>
<path d="M14.9981 12.4344L14.1971 12.5335L12.4766 12.4344V12.3185L14.1971 12.2195L14.9981 12.3185V12.4344Z" fill="#41479B"/>
<path d="M15 12.4344L15.801 12.5335L17.5215 12.4344V12.3185L15.801 12.2195L15 12.3185V12.4344Z" fill="#41479B"/>
<path d="M14.948 12.376L14.8672 11.3924L14.948 9.27954H15.0426L15.1235 11.3924L15.0426 12.376H14.948Z" fill="#41479B"/>
<path d="M14.948 12.3767L14.8672 13.3603L14.948 15.4732H15.0426L15.1235 13.3603L15.0426 12.3767H14.948Z" fill="#41479B"/>
<path d="M14.9627 12.4178L14.3391 11.7926L13.1797 10.2283L13.2465 10.1462L14.5204 11.5701L15.0295 12.3358L14.9627 12.4178Z" fill="#41479B"/>
<path d="M14.9648 12.418L15.474 13.1837L16.7478 14.6075L16.8146 14.5254L15.6552 12.9611L15.0316 12.3359L14.9648 12.418Z" fill="#41479B"/>
<path d="M14.9648 12.3358L15.474 11.5701L16.7478 10.1462L16.8146 10.2283L15.6552 11.7926L15.0316 12.4178L14.9648 12.3358Z" fill="#41479B"/>
<path d="M14.9627 12.3357L14.3391 12.9609L13.1797 14.5252L13.2465 14.6073L14.5204 13.1835L15.0295 12.4177L14.9627 12.3357Z" fill="#41479B"/>
<path d="M15.0142 12.4308L14.3051 12.899L12.6846 13.6158L12.6484 13.5085L14.2071 12.6082L14.978 12.3235L15.0142 12.4308Z" fill="#41479B"/>
<path d="M15.0167 12.4305L15.7876 12.1458L17.3463 11.2455L17.31 11.1382L15.6896 11.855L14.9805 12.3231L15.0167 12.4305Z" fill="#41479B"/>
<path d="M14.9571 12.3991L14.5759 11.5283L13.9922 9.53836L14.0796 9.4939L14.8127 11.408L15.0446 12.3547L14.9571 12.3991Z" fill="#41479B"/>
<path d="M14.9531 12.3992L15.185 13.3459L15.9181 15.26L16.0055 15.2155L15.4218 13.2255L15.0405 12.3547L14.9531 12.3992Z" fill="#41479B"/>
<path d="M14.978 12.4307L14.2071 12.146L12.6484 11.2457L12.6846 11.1384L14.3051 11.8552L15.0142 12.3234L14.978 12.4307Z" fill="#41479B"/>
<path d="M14.9805 12.4306L15.6896 12.8987L17.31 13.6155L17.3463 13.5083L15.7876 12.608L15.0167 12.3232L14.9805 12.4306Z" fill="#41479B"/>
<path d="M14.9531 12.3547L15.185 11.408L15.9181 9.4939L16.0055 9.53836L15.4218 11.5283L15.0405 12.3991L14.9531 12.3547Z" fill="#41479B"/>
<path d="M14.9571 12.3547L14.5759 13.2255L13.9922 15.2155L14.0796 15.26L14.8127 13.3459L15.0446 12.3992L14.9571 12.3547Z" fill="#41479B"/>
<path d="M14.9994 12.8989C15.2342 12.8989 15.4246 12.6652 15.4246 12.3768C15.4246 12.0885 15.2342 11.8547 14.9994 11.8547C14.7646 11.8547 14.5742 12.0885 14.5742 12.3768C14.5742 12.6652 14.7646 12.8989 14.9994 12.8989Z" fill="#F5F5F5"/>
<path d="M14.9971 12.6899C15.1379 12.6899 15.2521 12.5497 15.2521 12.3768C15.2521 12.2039 15.1379 12.0637 14.9971 12.0637C14.8563 12.0637 14.7422 12.2039 14.7422 12.3768C14.7422 12.5497 14.8563 12.6899 14.9971 12.6899Z" fill="#41479B"/>
</svg>
