<svg width="30" height="25" viewBox="0 0 30 25" fill="none" xmlns="http://www.w3.org/2000/svg">
<path d="M27.7532 0.309326H2.24678C1.00588 0.309326 0 1.5445 0 3.06828V21.6862C0 23.2099 1.00588 24.4451 2.24678 24.4451H27.7532C28.9941 24.4451 30 23.2099 30 21.6862V3.06828C30 1.5445 28.9941 0.309326 27.7532 0.309326Z" fill="#F5F5F5"/>
<path d="M0.125 2.16521H29.8778C29.5733 1.08473 28.738 0.308594 27.7546 0.308594H2.2482C1.26477 0.308594 0.429512 1.08473 0.125 2.16521Z" fill="#FF4B55"/>
<path d="M30 7.73511H0V9.59165H30V7.73511Z" fill="#FF4B55"/>
<path d="M30 4.02148H0V5.87803H30V4.02148Z" fill="#FF4B55"/>
<path d="M0 12.6697C0 13.0204 0.231621 13.3049 0.517266 13.3049H30V11.4482H0V12.6697Z" fill="#FF4B55"/>
<path d="M30 18.8752H0V20.7319H30V18.8752Z" fill="#FF4B55"/>
<path d="M29.8779 22.5876H0.125C0.429512 23.6681 1.26482 24.4443 2.2482 24.4443H27.7547C28.7381 24.4443 29.5733 23.6681 29.8779 22.5876Z" fill="#FF4B55"/>
<path d="M30 15.1616H0V17.0182H30V15.1616Z" fill="#FF4B55"/>
<path d="M0.517266 13.3048H13.4483C13.734 13.3048 13.9656 13.0204 13.9656 12.6697V0.943774C13.9656 0.592943 13.734 0.308594 13.4483 0.308594H2.24678C1.00588 0.308666 0 1.54384 0 3.06762V12.6697C0 13.0205 0.231621 13.3048 0.517266 13.3048Z" fill="#41479B"/>
<path d="M1.4533 1.76629L1.5678 2.18792L1.92973 2.1913C1.97661 2.19181 1.996 2.2652 1.95833 2.29937L1.66717 2.56336L1.77639 2.98708C1.79057 3.0419 1.73965 3.08738 1.70151 3.05385L1.40707 2.79547L1.11264 3.05392C1.07449 3.08745 1.02369 3.04198 1.03776 2.98715L1.14698 2.56343L0.855822 2.29945C0.818146 2.2652 0.837541 2.19181 0.884416 2.19138L1.24635 2.18799L1.36084 1.76636C1.37561 1.71168 1.43842 1.71168 1.4533 1.76629Z" fill="#F5F5F5"/>
<path d="M1.4533 3.97156L1.5678 4.39319L1.92973 4.39657C1.97661 4.39708 1.996 4.47039 1.95833 4.50464L1.66717 4.7687L1.77639 5.19242C1.79057 5.24724 1.73965 5.29272 1.70151 5.25919L1.40707 5.00081L1.11264 5.25926C1.07449 5.29272 1.02369 5.24732 1.03776 5.19249L1.14698 4.76877L0.855822 4.50471C0.818146 4.47047 0.837541 4.39715 0.884416 4.39664L1.24635 4.39326L1.36084 3.97163C1.37561 3.91702 1.43842 3.91702 1.4533 3.97156Z" fill="#F5F5F5"/>
<path d="M1.4533 6.17718L1.5678 6.59881L1.92973 6.60219C1.97661 6.6027 1.996 6.67601 1.95833 6.71026L1.66717 6.97432L1.77639 7.39804C1.79057 7.45287 1.73965 7.49834 1.70151 7.46481L1.40707 7.20643L1.11264 7.46488C1.07449 7.49834 1.02369 7.45301 1.03776 7.39811L1.14698 6.97439L0.855822 6.71033C0.818146 6.67609 0.837541 6.60277 0.884416 6.60226L1.24635 6.59888L1.36084 6.17725C1.37561 6.12257 1.43842 6.12257 1.4533 6.17718Z" fill="#F5F5F5"/>
<path d="M1.4533 8.38275L1.5678 8.80438L1.92973 8.80776C1.97661 8.80826 1.996 8.88165 1.95833 8.91583L1.66717 9.17989L1.77639 9.60361C1.79057 9.65843 1.73965 9.7039 1.70151 9.67037L1.40707 9.412L1.11264 9.67045C1.07449 9.7039 1.02369 9.6585 1.03776 9.60368L1.14698 9.17996L0.855822 8.9159C0.818146 8.8818 0.837541 8.80833 0.884416 8.80783L1.24635 8.80445L1.36084 8.38282C1.37561 8.32814 1.43842 8.32813 1.4533 8.38275Z" fill="#F5F5F5"/>
<path d="M1.4533 10.5883L1.5678 11.0099L1.92973 11.0133C1.97661 11.0138 1.996 11.0871 1.95833 11.1213L1.66717 11.3854L1.77639 11.8091C1.79057 11.8639 1.73965 11.9094 1.70151 11.8759L1.40707 11.6175L1.11264 11.876C1.07449 11.9094 1.02369 11.864 1.03776 11.8092L1.14698 11.3855L0.855822 11.1214C0.818146 11.0872 0.837541 11.0138 0.884416 11.0133L1.24635 11.01L1.36084 10.5883C1.37561 10.5337 1.43842 10.5337 1.4533 10.5883Z" fill="#F5F5F5"/>
<path d="M2.84392 2.84706L2.95841 3.26869L3.32034 3.27207C3.36722 3.27257 3.38661 3.34596 3.34894 3.38014L3.05779 3.6442L3.167 4.06792C3.18118 4.12274 3.13027 4.16822 3.09212 4.13469L2.79769 3.87624L2.50326 4.13469C2.46512 4.16814 2.41432 4.12274 2.42838 4.06792L2.5376 3.6442L2.24645 3.38014C2.20877 3.34589 2.22817 3.27257 2.27504 3.27207L2.63697 3.26869L2.75146 2.84706C2.76623 2.79252 2.8291 2.79252 2.84392 2.84706Z" fill="#F5F5F5"/>
<path d="M2.84392 5.05268L2.95841 5.47431L3.32034 5.47769C3.36722 5.47819 3.38661 5.55158 3.34894 5.58576L3.05779 5.84982L3.167 6.27354C3.18118 6.32836 3.13027 6.37384 3.09212 6.34031L2.79769 6.08186L2.50326 6.34031C2.46512 6.37377 2.41432 6.32844 2.42838 6.27354L2.5376 5.84982L2.24645 5.58576C2.20877 5.55166 2.22817 5.47819 2.27504 5.47769L2.63697 5.47431L2.75146 5.05268C2.76623 4.99807 2.8291 4.99807 2.84392 5.05268Z" fill="#F5F5F5"/>
<path d="M2.84392 7.25824L2.95841 7.67987L3.32034 7.68326C3.36722 7.68376 3.38661 7.75708 3.34894 7.79133L3.05779 8.05538L3.167 8.4791C3.18118 8.53393 3.13027 8.5794 3.09212 8.54587L2.79769 8.28743L2.50326 8.54587C2.46512 8.57933 2.41432 8.53393 2.42838 8.4791L2.5376 8.05538L2.24645 7.79133C2.20877 7.75708 2.22817 7.68376 2.27504 7.68326L2.63697 7.67987L2.75146 7.25824C2.76623 7.20363 2.8291 7.20363 2.84392 7.25824Z" fill="#F5F5F5"/>
<path d="M2.84392 9.46376L2.95841 9.88539L3.32034 9.88877C3.36722 9.88927 3.38661 9.96259 3.34894 9.99684L3.05779 10.2609L3.167 10.6846C3.18118 10.7394 3.13027 10.7849 3.09212 10.7514L2.79769 10.4929L2.50326 10.7514C2.46512 10.7849 2.41432 10.7394 2.42838 10.6846L2.5376 10.2609L2.24645 9.99684C2.20877 9.96259 2.22817 9.88927 2.27504 9.88877L2.63697 9.88539L2.75146 9.46376C2.76623 9.40922 2.8291 9.40922 2.84392 9.46376Z" fill="#F5F5F5"/>
<path d="M4.23846 1.76606L4.35295 2.18769L4.71489 2.19107C4.76176 2.19157 4.78116 2.26496 4.74348 2.29914L4.45233 2.56313L4.56155 2.98684C4.57573 3.04167 4.52481 3.08714 4.48666 3.05361L4.19223 2.79517L3.8978 3.05361C3.85965 3.08714 3.80885 3.04167 3.82291 2.98684L3.93213 2.56313L3.64098 2.29914C3.6033 2.26489 3.6227 2.1915 3.66957 2.19107L4.03151 2.18769L4.146 1.76606C4.16076 1.71145 4.22364 1.71145 4.23846 1.76606Z" fill="#F5F5F5"/>
<path d="M4.24237 3.97157L4.35686 4.3932L4.71879 4.39658C4.76567 4.39709 4.78506 4.4704 4.74739 4.50465L4.45624 4.76871L4.56545 5.19243C4.57963 5.24726 4.52872 5.29273 4.49057 5.2592L4.19614 5.00075L3.9017 5.2592C3.86356 5.29266 3.81276 5.24726 3.82682 5.19243L3.93604 4.76871L3.64488 4.50465C3.60721 4.4704 3.6266 4.39709 3.67348 4.39658L4.03541 4.3932L4.14991 3.97157C4.16467 3.91703 4.22754 3.91703 4.24237 3.97157Z" fill="#F5F5F5"/>
<path d="M4.24237 6.17719L4.35686 6.59882L4.71879 6.6022C4.76567 6.60271 4.78506 6.67602 4.74739 6.71027L4.45624 6.97433L4.56545 7.39805C4.57963 7.45287 4.52872 7.49835 4.49057 7.46482L4.19614 7.20637L3.9017 7.46482C3.86356 7.49828 3.81276 7.45295 3.82682 7.39805L3.93604 6.97433L3.64488 6.71027C3.60721 6.67602 3.6266 6.60271 3.67348 6.6022L4.03541 6.59882L4.14991 6.17719C4.16467 6.12258 4.22754 6.12258 4.24237 6.17719Z" fill="#F5F5F5"/>
<path d="M4.24237 8.38275L4.35686 8.80439L4.71879 8.80777C4.76567 8.80827 4.78506 8.88166 4.74739 8.91584L4.45624 9.1799L4.56545 9.60362C4.57963 9.65844 4.52872 9.70391 4.49057 9.67038L4.19614 9.41194L3.9017 9.67038C3.86356 9.70384 3.81276 9.65844 3.82682 9.60362L3.93604 9.1799L3.64488 8.91584C3.60721 8.88173 3.6266 8.80827 3.67348 8.80777L4.03541 8.80439L4.14991 8.38275C4.16467 8.32814 4.22754 8.32814 4.24237 8.38275Z" fill="#F5F5F5"/>
<path d="M4.24237 10.5883L4.35686 11.0099L4.71879 11.0133C4.76567 11.0138 4.78506 11.0871 4.74739 11.1213L4.45624 11.3854L4.56545 11.8091C4.57963 11.864 4.52872 11.9094 4.49057 11.8759L4.19614 11.6174L3.9017 11.8759C3.86356 11.9094 3.81276 11.864 3.82682 11.8091L3.93604 11.3854L3.64488 11.1213C3.60721 11.0871 3.6266 11.0138 3.67348 11.0133L4.03541 11.0099L4.14991 10.5883C4.16467 10.5337 4.22754 10.5337 4.24237 10.5883Z" fill="#F5F5F5"/>
<path d="M5.63299 2.84706L5.74748 3.26869L6.10942 3.27207C6.15629 3.27257 6.17569 3.34596 6.13801 3.38014L5.84686 3.6442L5.95608 4.06792C5.97026 4.12274 5.91934 4.16822 5.8812 4.13469L5.58676 3.87624L5.29233 4.13469C5.25418 4.16814 5.20338 4.12274 5.21744 4.06792L5.32666 3.6442L5.03551 3.38014C4.99783 3.34589 5.01723 3.27257 5.0641 3.27207L5.42604 3.26869L5.54053 2.84706C5.55524 2.79252 5.61817 2.79252 5.63299 2.84706Z" fill="#F5F5F5"/>
<path d="M5.63299 5.05268L5.74748 5.47431L6.10942 5.47769C6.15629 5.47819 6.17569 5.55158 6.13801 5.58576L5.84686 5.84982L5.95608 6.27354C5.97026 6.32836 5.91934 6.37384 5.8812 6.34031L5.58676 6.08186L5.29233 6.34031C5.25418 6.37377 5.20338 6.32844 5.21744 6.27354L5.32666 5.84982L5.03551 5.58576C4.99783 5.55166 5.01723 5.47819 5.0641 5.47769L5.42604 5.47431L5.54053 5.05268C5.55524 4.99807 5.61817 4.99807 5.63299 5.05268Z" fill="#F5F5F5"/>
<path d="M5.63299 7.25824L5.74748 7.67987L6.10942 7.68326C6.15629 7.68376 6.17569 7.75708 6.13801 7.79133L5.84686 8.05538L5.95608 8.4791C5.97026 8.53393 5.91934 8.5794 5.8812 8.54587L5.58676 8.28743L5.29233 8.54587C5.25418 8.57933 5.20338 8.53393 5.21744 8.4791L5.32666 8.05538L5.03551 7.79133C4.99783 7.75708 5.01723 7.68376 5.0641 7.68326L5.42604 7.67987L5.54053 7.25824C5.55524 7.20363 5.61817 7.20363 5.63299 7.25824Z" fill="#F5F5F5"/>
<path d="M5.63299 9.46376L5.74748 9.88539L6.10942 9.88877C6.15629 9.88927 6.17569 9.96259 6.13801 9.99684L5.84686 10.2609L5.95608 10.6846C5.97026 10.7394 5.91934 10.7849 5.8812 10.7514L5.58676 10.4929L5.29233 10.7514C5.25418 10.7849 5.20338 10.7394 5.21744 10.6846L5.32666 10.2609L5.03551 9.99684C4.99783 9.96259 5.01723 9.88927 5.0641 9.88877L5.42604 9.88539L5.54053 9.46376C5.55524 9.40922 5.61817 9.40922 5.63299 9.46376Z" fill="#F5F5F5"/>
<path d="M7.02806 1.76605L7.14255 2.18768L7.50449 2.19106C7.55136 2.19156 7.57075 2.26495 7.53308 2.29913L7.24193 2.56312L7.35115 2.98683C7.36533 3.04166 7.31441 3.08713 7.27626 3.0536L6.98177 2.79523L6.68734 3.05368C6.6492 3.08721 6.5984 3.04173 6.61246 2.98691L6.72168 2.56319L6.43053 2.2992C6.39285 2.26495 6.41225 2.19156 6.45912 2.19113L6.82105 2.18775L6.93554 1.76612C6.95037 1.71144 7.01324 1.71144 7.02806 1.76605Z" fill="#F5F5F5"/>
<path d="M7.02758 3.97157L7.14207 4.3932L7.504 4.39658C7.55087 4.39709 7.57027 4.4704 7.53259 4.50465L7.24144 4.76871L7.35066 5.19243C7.36484 5.24726 7.31392 5.29273 7.27578 5.2592L6.98129 5.00075L6.68686 5.2592C6.64871 5.29266 6.59791 5.24726 6.61197 5.19243L6.72119 4.76871L6.43004 4.50465C6.39236 4.4704 6.41176 4.39709 6.45863 4.39658L6.82057 4.3932L6.93506 3.97157C6.94988 3.91703 7.01275 3.91703 7.02758 3.97157Z" fill="#F5F5F5"/>
<path d="M7.02758 6.1772L7.14207 6.59883L7.504 6.60221C7.55087 6.60271 7.57027 6.67603 7.53259 6.71028L7.24144 6.97434L7.35066 7.39806C7.36484 7.45288 7.31392 7.49836 7.27578 7.46483L6.98129 7.20631L6.68686 7.46476C6.64871 7.49821 6.59791 7.45281 6.61197 7.39799L6.72119 6.97427L6.43004 6.71021C6.39236 6.67596 6.41176 6.60264 6.45863 6.60214L6.82057 6.59876L6.93506 6.17713C6.94988 6.12259 7.01275 6.12259 7.02758 6.1772Z" fill="#F5F5F5"/>
<path d="M7.02758 8.38275L7.14207 8.80439L7.504 8.80777C7.55087 8.80827 7.57027 8.88166 7.53259 8.91584L7.24144 9.1799L7.35066 9.60362C7.36484 9.65844 7.31392 9.70391 7.27578 9.67038L6.98129 9.41194L6.68686 9.67038C6.64871 9.70384 6.59791 9.65844 6.61197 9.60362L6.72119 9.1799L6.43004 8.91584C6.39236 8.88173 6.41176 8.80827 6.45863 8.80777L6.82057 8.80439L6.93506 8.38275C6.94988 8.32814 7.01275 8.32814 7.02758 8.38275Z" fill="#F5F5F5"/>
<path d="M7.02758 10.5883L7.14207 11.0099L7.504 11.0133C7.55087 11.0138 7.57027 11.0871 7.53259 11.1213L7.24144 11.3854L7.35066 11.8091C7.36484 11.864 7.31392 11.9094 7.27578 11.8759L6.98129 11.6174L6.68686 11.8759C6.64871 11.9094 6.59791 11.864 6.61197 11.8091L6.72119 11.3854L6.43004 11.1213C6.39236 11.0871 6.41176 11.0138 6.45863 11.0133L6.82057 11.0099L6.93506 10.5883C6.94988 10.5337 7.01275 10.5337 7.02758 10.5883Z" fill="#F5F5F5"/>
<path d="M8.42205 2.84706L8.53654 3.26869L8.89847 3.27207C8.94534 3.27257 8.96474 3.34596 8.92706 3.38014L8.63591 3.6442L8.74513 4.06792C8.75931 4.12274 8.70839 4.16822 8.67025 4.13469L8.37582 3.87624L8.08139 4.13469C8.04324 4.16814 7.99244 4.12274 8.0065 4.06792L8.11572 3.6442L7.82457 3.38014C7.7869 3.34589 7.80629 3.27257 7.85317 3.27207L8.2151 3.26869L8.32959 2.84706C8.34441 2.79252 8.40722 2.79252 8.42205 2.84706Z" fill="#F5F5F5"/>
<path d="M8.42205 5.05268L8.53654 5.47431L8.89847 5.47769C8.94534 5.47819 8.96474 5.55158 8.92706 5.58576L8.63591 5.84982L8.74513 6.27354C8.75931 6.32836 8.70839 6.37384 8.67025 6.34031L8.37582 6.08186L8.08139 6.34031C8.04324 6.37377 7.99244 6.32844 8.0065 6.27354L8.11572 5.84982L7.82457 5.58576C7.7869 5.55166 7.80629 5.47819 7.85317 5.47769L8.2151 5.47431L8.32959 5.05268C8.34441 4.99807 8.40722 4.99807 8.42205 5.05268Z" fill="#F5F5F5"/>
<path d="M8.42205 7.25824L8.53654 7.67987L8.89847 7.68326C8.94534 7.68376 8.96474 7.75708 8.92706 7.79133L8.63591 8.05538L8.74513 8.4791C8.75931 8.53393 8.70839 8.5794 8.67025 8.54587L8.37582 8.28743L8.08139 8.54587C8.04324 8.57933 7.99244 8.53393 8.0065 8.4791L8.11572 8.05538L7.82457 7.79133C7.7869 7.75708 7.80629 7.68376 7.85317 7.68326L8.2151 7.67987L8.32959 7.25824C8.34441 7.20363 8.40722 7.20363 8.42205 7.25824Z" fill="#F5F5F5"/>
<path d="M8.42205 9.46376L8.53654 9.88539L8.89847 9.88877C8.94534 9.88927 8.96474 9.96259 8.92706 9.99684L8.63591 10.2609L8.74513 10.6846C8.75931 10.7394 8.70839 10.7849 8.67025 10.7514L8.37582 10.4929L8.08139 10.7514C8.04324 10.7849 7.99244 10.7394 8.0065 10.6846L8.11572 10.2609L7.82457 9.99684C7.7869 9.96259 7.80629 9.88927 7.85317 9.88877L8.2151 9.88539L8.32959 9.46376C8.34441 9.40922 8.40722 9.40922 8.42205 9.46376Z" fill="#F5F5F5"/>
<path d="M9.81659 1.76606L9.93108 2.18769L10.293 2.19107C10.3399 2.19157 10.3593 2.26496 10.3216 2.29914L10.0305 2.56313L10.1397 2.98684C10.1539 3.04167 10.1029 3.08714 10.0648 3.05361L9.77035 2.79517L9.47592 3.05361C9.43778 3.08714 9.38697 3.04167 9.40104 2.98684L9.51026 2.56313L9.2191 2.29914C9.18143 2.26489 9.20082 2.1915 9.2477 2.19107L9.60963 2.18769L9.72412 1.76606C9.73883 1.71145 9.80176 1.71145 9.81659 1.76606Z" fill="#F5F5F5"/>
<path d="M9.82049 3.97157L9.93499 4.3932L10.2969 4.39658C10.3438 4.39709 10.3632 4.4704 10.3255 4.50465L10.0344 4.76871L10.1436 5.19243C10.1578 5.24726 10.1068 5.29273 10.0687 5.2592L9.77426 5.00075L9.47983 5.2592C9.44168 5.29266 9.39088 5.24726 9.40494 5.19243L9.51416 4.76871L9.22301 4.50465C9.18533 4.4704 9.20473 4.39709 9.2516 4.39658L9.61354 4.3932L9.72803 3.97157C9.74274 3.91703 9.80567 3.91703 9.82049 3.97157Z" fill="#F5F5F5"/>
<path d="M9.82049 6.17719L9.93499 6.59882L10.2969 6.6022C10.3438 6.60271 10.3632 6.67602 10.3255 6.71027L10.0344 6.97433L10.1436 7.39805C10.1578 7.45287 10.1068 7.49835 10.0687 7.46482L9.77426 7.20637L9.47983 7.46482C9.44168 7.49828 9.39088 7.45295 9.40494 7.39805L9.51416 6.97433L9.22301 6.71027C9.18533 6.67602 9.20473 6.60271 9.2516 6.6022L9.61354 6.59882L9.72803 6.17719C9.74274 6.12258 9.80567 6.12258 9.82049 6.17719Z" fill="#F5F5F5"/>
<path d="M9.82049 8.38275L9.93499 8.80439L10.2969 8.80777C10.3438 8.80827 10.3632 8.88166 10.3255 8.91584L10.0344 9.1799L10.1436 9.60362C10.1578 9.65844 10.1068 9.70391 10.0687 9.67038L9.77426 9.41194L9.47983 9.67038C9.44168 9.70384 9.39088 9.65844 9.40494 9.60362L9.51416 9.1799L9.22301 8.91584C9.18533 8.88173 9.20473 8.80827 9.2516 8.80777L9.61354 8.80439L9.72803 8.38275C9.74274 8.32814 9.80567 8.32814 9.82049 8.38275Z" fill="#F5F5F5"/>
<path d="M9.82049 10.5883L9.93499 11.0099L10.2969 11.0133C10.3438 11.0138 10.3632 11.0871 10.3255 11.1213L10.0344 11.3854L10.1436 11.8091C10.1578 11.864 10.1068 11.9094 10.0687 11.8759L9.77426 11.6174L9.47983 11.8759C9.44168 11.9094 9.39088 11.864 9.40494 11.8091L9.51416 11.3854L9.22301 11.1213C9.18533 11.0871 9.20473 11.0138 9.2516 11.0133L9.61354 11.0099L9.72803 10.5883C9.74274 10.5337 9.80567 10.5337 9.82049 10.5883Z" fill="#F5F5F5"/>
<path d="M11.2111 2.84706L11.3256 3.26869L11.6875 3.27207C11.7344 3.27257 11.7538 3.34596 11.7161 3.38014L11.425 3.6442L11.5342 4.06792C11.5484 4.12274 11.4975 4.16822 11.4593 4.13469L11.1649 3.87624L10.8704 4.13469C10.8323 4.16814 10.7815 4.12274 10.7956 4.06792L10.9048 3.6442L10.6136 3.38014C10.576 3.34589 10.5954 3.27257 10.6422 3.27207L11.0042 3.26869L11.1186 2.84706C11.1334 2.79252 11.1963 2.79252 11.2111 2.84706Z" fill="#F5F5F5"/>
<path d="M11.2111 5.05268L11.3256 5.47431L11.6875 5.47769C11.7344 5.47819 11.7538 5.55158 11.7161 5.58576L11.425 5.84982L11.5342 6.27354C11.5484 6.32836 11.4975 6.37384 11.4593 6.34031L11.1649 6.08186L10.8704 6.34031C10.8323 6.37377 10.7815 6.32844 10.7956 6.27354L10.9048 5.84982L10.6136 5.58576C10.576 5.55166 10.5954 5.47819 10.6422 5.47769L11.0042 5.47431L11.1186 5.05268C11.1334 4.99807 11.1963 4.99807 11.2111 5.05268Z" fill="#F5F5F5"/>
<path d="M11.2111 7.25824L11.3256 7.67987L11.6875 7.68326C11.7344 7.68376 11.7538 7.75708 11.7161 7.79133L11.425 8.05538L11.5342 8.4791C11.5484 8.53393 11.4975 8.5794 11.4593 8.54587L11.1649 8.28743L10.8704 8.54587C10.8323 8.57933 10.7815 8.53393 10.7956 8.4791L10.9048 8.05538L10.6136 7.79133C10.576 7.75708 10.5954 7.68376 10.6422 7.68326L11.0042 7.67987L11.1186 7.25824C11.1334 7.20363 11.1963 7.20363 11.2111 7.25824Z" fill="#F5F5F5"/>
<path d="M11.2111 9.464L11.3256 9.88563L11.6875 9.88901C11.7344 9.88952 11.7538 9.96283 11.7161 9.99708L11.425 10.2611L11.5342 10.6849C11.5484 10.7397 11.4975 10.7852 11.4593 10.7516L11.1649 10.4932L10.8704 10.7516C10.8323 10.7852 10.7815 10.7397 10.7956 10.6849L10.9048 10.2611L10.6136 9.99708C10.576 9.96283 10.5954 9.88952 10.6422 9.88901L11.0042 9.88563L11.1186 9.464C11.1334 9.40946 11.1963 9.40946 11.2111 9.464Z" fill="#F5F5F5"/>
<path d="M12.6061 1.76606L12.7206 2.18769L13.0825 2.19107C13.1294 2.19157 13.1488 2.26496 13.1111 2.29914L12.82 2.56313L12.9292 2.98684C12.9434 3.04167 12.8925 3.08714 12.8543 3.05361L12.5599 2.79517L12.2655 3.05361C12.2273 3.08714 12.1765 3.04167 12.1906 2.98684L12.2998 2.56313L12.0087 2.29914C11.971 2.26489 11.9904 2.1915 12.0372 2.19107L12.3992 2.18769L12.5137 1.76606C12.5284 1.71145 12.5912 1.71145 12.6061 1.76606Z" fill="#F5F5F5"/>
<path d="M12.6056 3.97157L12.7201 4.3932L13.0821 4.39658C13.1289 4.39709 13.1483 4.4704 13.1107 4.50465L12.8195 4.76871L12.9287 5.19243C12.9429 5.24726 12.892 5.29273 12.8538 5.2592L12.5594 5.00075L12.265 5.2592C12.2268 5.29266 12.176 5.24726 12.1901 5.19243L12.2993 4.76871L12.0082 4.50465C11.9705 4.4704 11.9899 4.39709 12.0368 4.39658L12.3987 4.3932L12.5132 3.97157C12.5279 3.91703 12.5908 3.91703 12.6056 3.97157Z" fill="#F5F5F5"/>
<path d="M12.6056 6.17719L12.7201 6.59882L13.0821 6.6022C13.1289 6.60271 13.1483 6.67602 13.1107 6.71027L12.8195 6.97433L12.9287 7.39805C12.9429 7.45287 12.892 7.49835 12.8538 7.46482L12.5594 7.20637L12.265 7.46482C12.2268 7.49828 12.176 7.45295 12.1901 7.39805L12.2993 6.97433L12.0082 6.71027C11.9705 6.67602 11.9899 6.60271 12.0368 6.6022L12.3987 6.59882L12.5132 6.17719C12.5279 6.12258 12.5908 6.12258 12.6056 6.17719Z" fill="#F5F5F5"/>
<path d="M12.6056 8.38275L12.7201 8.80439L13.0821 8.80777C13.1289 8.80827 13.1483 8.88166 13.1107 8.91584L12.8195 9.1799L12.9287 9.60362C12.9429 9.65844 12.892 9.70391 12.8538 9.67038L12.5594 9.41194L12.265 9.67038C12.2268 9.70384 12.176 9.65844 12.1901 9.60362L12.2993 9.1799L12.0082 8.91584C11.9705 8.88173 11.9899 8.80827 12.0368 8.80777L12.3987 8.80439L12.5132 8.38275C12.5279 8.32814 12.5908 8.32814 12.6056 8.38275Z" fill="#F5F5F5"/>
<path d="M12.6056 10.5883L12.7201 11.0099L13.0821 11.0133C13.1289 11.0138 13.1483 11.0871 13.1107 11.1213L12.8195 11.3854L12.9287 11.8091C12.9429 11.864 12.892 11.9094 12.8538 11.8759L12.5594 11.6174L12.265 11.8759C12.2268 11.9094 12.176 11.864 12.1901 11.8091L12.2993 11.3854L12.0082 11.1213C11.9705 11.0871 11.9899 11.0138 12.0368 11.0133L12.3987 11.0099L12.5132 10.5883C12.5279 10.5337 12.5908 10.5337 12.6056 10.5883Z" fill="#F5F5F5"/>
</svg>
