<svg width="30" height="25" viewBox="0 0 30 25" fill="none" xmlns="http://www.w3.org/2000/svg">
<path d="M27.7532 24.4455H2.24678C1.00588 24.4455 0 23.2103 0 21.6865V3.06768C0 1.54391 1.00588 0.308594 2.24678 0.308594H27.7532C28.9941 0.308594 30 1.54383 30 3.06768V21.6865C30 23.2103 28.9941 24.4455 27.7532 24.4455Z" fill="#F5F5F5"/>
<path d="M14.3203 19.8996C14.6065 19.6371 14.8551 19.5513 15.2399 19.4655C15.6248 19.3796 16.0312 19.2332 16.2444 19.1625C16.4594 19.0894 15.5221 19.5109 15.2833 19.5942C15.0485 19.6825 14.3203 19.8996 14.3203 19.8996Z" fill="#73AF00"/>
<path d="M15.8682 19.1605C15.7912 18.5667 15.9826 17.9416 16.4207 17.6919C16.5233 18.1233 16.2095 18.8551 15.8682 19.1605Z" fill="#73AF00"/>
<path d="M16.6183 18.8526C16.3835 18.3558 16.7782 17.7184 17.0722 17.4082C17.2084 17.7063 16.9695 18.5957 16.6183 18.8526Z" fill="#73AF00"/>
<path d="M17.3037 18.4697C17.055 18.0456 17.3511 17.304 17.6668 17.0107C17.7892 17.4301 17.6668 18.1812 17.3037 18.4697Z" fill="#73AF00"/>
<path d="M17.9981 17.9368C17.7692 17.5369 17.9291 16.9165 18.2586 16.5117C18.4936 16.8462 18.2922 17.5684 17.9981 17.9368Z" fill="#73AF00"/>
<path d="M18.5496 17.4038C18.3582 17.0256 18.5929 16.1218 18.9008 15.8721C19.033 16.2065 18.9343 17.1518 18.5496 17.4038Z" fill="#73AF00"/>
<path d="M18.9911 17.2601C18.9359 16.7197 19.7055 16.1211 20.0193 16.138C19.9857 16.579 19.6561 17.0637 18.9911 17.2601Z" fill="#73AF00"/>
<path d="M18.5625 17.8713C18.9257 17.4159 19.6263 17.4159 19.8748 17.5103C19.8098 17.7769 18.981 18.3562 18.5625 17.8713Z" fill="#73AF00"/>
<path d="M18.0625 18.3293C18.5717 18.162 18.9012 18.0263 19.2051 18.414C18.99 18.7485 18.1652 18.6492 18.0625 18.3293Z" fill="#73AF00"/>
<path d="M17.3361 18.7341C17.8235 18.4141 18.4136 18.8867 18.5024 19.1606C17.9597 19.4392 17.3261 18.8043 17.3361 18.7341Z" fill="#73AF00"/>
<path d="M16.6719 19.1923C17.1159 18.9838 17.6251 19.2601 17.8264 19.5655C17.5896 19.7061 16.9699 19.8587 16.6719 19.1923Z" fill="#73AF00"/>
<path d="M16.0625 19.4269C16.5717 19.3568 17.059 19.8317 17.1656 20.1007C16.5182 20.1782 16.2676 19.9384 16.0625 19.4269Z" fill="#73AF00"/>
<path d="M15.9001 19.8994C15.6178 19.6369 15.3692 19.5511 14.9844 19.4652C14.5995 19.3794 14.193 19.2329 13.9761 19.1623C13.7649 19.0892 14.7022 19.5106 14.941 19.5939C15.1777 19.6822 15.9001 19.8994 15.9001 19.8994Z" fill="#73AF00"/>
<path d="M14.3523 19.1605C14.4331 18.5667 14.2417 17.9416 13.7997 17.6919C13.701 18.1233 14.0148 18.8551 14.3523 19.1605Z" fill="#73AF00"/>
<path d="M13.606 18.8526C13.8448 18.3558 13.4462 17.7184 13.1521 17.4082C13.0159 17.7063 13.2548 18.5957 13.606 18.8526Z" fill="#73AF00"/>
<path d="M12.9138 18.4697C13.1664 18.0456 12.8704 17.304 12.5546 17.0107C12.4303 17.4301 12.5547 18.1812 12.9138 18.4697Z" fill="#73AF00"/>
<path d="M12.2247 17.9365C12.4517 17.5366 12.2939 16.9162 11.9662 16.5115C11.7314 16.846 11.9327 17.5682 12.2247 17.9365Z" fill="#73AF00"/>
<path d="M11.6703 17.4038C11.8657 17.0256 11.6268 16.1218 11.319 15.8721C11.1828 16.2065 11.2854 17.1518 11.6703 17.4038Z" fill="#73AF00"/>
<path d="M11.2274 17.2601C11.2867 16.7197 10.517 16.1211 10.2031 16.138C10.2367 16.579 10.5604 17.0637 11.2274 17.2601Z" fill="#73AF00"/>
<path d="M11.6639 17.8713C11.3007 17.4159 10.6002 17.4159 10.3516 17.5103C10.4205 17.7769 11.2454 18.3562 11.6639 17.8713Z" fill="#73AF00"/>
<path d="M12.1583 18.3293C11.6491 18.162 11.3196 18.0263 11.0156 18.414C11.2268 18.7485 12.0556 18.6492 12.1583 18.3293Z" fill="#73AF00"/>
<path d="M12.8811 18.7341C12.3957 18.4141 11.8076 18.8867 11.7188 19.1606C12.2615 19.4392 12.891 18.8043 12.8811 18.7341Z" fill="#73AF00"/>
<path d="M13.549 19.1923C13.1069 18.9838 12.5997 19.2601 12.3984 19.5655C12.6372 19.7061 13.257 19.8587 13.549 19.1923Z" fill="#73AF00"/>
<path d="M14.1598 19.4269C13.6467 19.3568 13.1593 19.8317 13.0547 20.1007C13.7059 20.1782 13.9546 19.9384 14.1598 19.4269Z" fill="#73AF00"/>
<path d="M8.67023 10.4482C8.67023 10.4482 8.5289 10.6746 8.76896 11.2479C9.00902 11.8212 8.83658 12.4829 9.09521 12.6946C9.35384 12.9064 9.10605 13.3262 9.40236 13.6058C9.69861 13.8855 10.4773 14.5291 11.0147 14.6043C11.5521 14.6795 12.0742 14.0127 12.3843 14.5049C12.6943 14.9971 12.6266 15.344 12.9191 15.3822C13.2116 15.4205 13.2116 15.2617 13.1901 15.0236C13.1686 14.7854 13.384 14.1238 13.8797 14.1238C14.3754 14.1238 14.9006 14.0513 15.7372 13.6641C16.5738 13.2768 16.9832 13.0916 17.091 12.4828C17.1987 11.8741 17.5051 11.1544 18.0954 11.4879C18.6858 11.8212 18.6461 11.6649 18.8276 11.5048C19.009 11.3448 19.6175 11.8077 19.7551 11.5631C19.8927 11.3183 18.6783 10.1079 18.7468 9.46918C18.8151 8.83059 18.9789 8.30014 19.4789 8.24776C19.9789 8.19538 19.8496 7.50728 20.3669 7.16319C20.8842 6.81918 21.1224 6.77975 21.5313 6.27009C21.9401 5.76044 23.0154 4.72876 23.0154 4.72876C23.0154 4.72876 20.9235 5.95896 20.5052 6.07143C20.0868 6.18396 19.9141 6.92502 18.7503 7.32199C17.5866 7.71897 17.5219 7.87777 16.6383 8.11594C15.8425 8.33051 14.0449 8.25841 12.9816 7.83942C12.8349 7.78164 12.6892 7.92382 12.7022 8.11234C12.746 8.74705 12.7337 9.88825 12.1059 10.0653C12.1059 10.0653 11.2503 9.28059 10.7115 9.62461C10.1728 9.96862 9.78955 11.1957 9.38847 11.0056C8.9874 10.8155 8.9349 10.0279 8.67023 10.4482Z" fill="#FFC850"/>
</svg>
