<svg width="30" height="30" viewBox="0 0 30 30" fill="none" xmlns="http://www.w3.org/2000/svg">
<g clip-path="url(#clip0_895_4108)">
<path fill-rule="evenodd" clip-rule="evenodd" d="M30 24.375V5.625C30 4.07552 29.4499 2.75065 28.3496 1.65039C27.2493 0.55013 25.9245 0 24.375 0H5.625C4.07552 0 2.75065 0.55013 1.65039 1.65039C0.55013 2.75065 0 4.07552 0 5.625V24.375C0 25.9245 0.55013 27.2493 1.65039 28.3496C2.75065 29.4499 4.07552 30 5.625 30H24.375C25.9245 30 27.2493 29.4499 28.3496 28.3496C29.4499 27.2493 30 25.9245 30 24.375ZM14.9995 19.476C17.4715 19.476 19.4755 17.472 19.4755 15C19.4755 12.5279 17.4715 10.5239 14.9995 10.5239C12.5274 10.5239 10.5234 12.5279 10.5234 15C10.5234 17.472 12.5274 19.476 14.9995 19.476ZM14.9995 22.476C19.1284 22.476 22.4755 19.1289 22.4755 15C22.4755 10.8711 19.1284 7.52392 14.9995 7.52392C10.8706 7.52392 7.52344 10.8711 7.52344 15C7.52344 19.1289 10.8706 22.476 14.9995 22.476ZM23.9141 8.13232C25.0186 8.13232 25.9141 7.23689 25.9141 6.13232C25.9141 5.02775 25.0186 4.13232 23.9141 4.13232C22.8095 4.13232 21.9141 5.02775 21.9141 6.13232C21.9141 7.23689 22.8095 8.13232 23.9141 8.13232Z" fill="#ADB5BD"/>
</g>
<defs>
<clipPath id="clip0_895_4108">
<rect width="30" height="30" fill="white"/>
</clipPath>
</defs>
</svg>
