<svg width="30" height="30" viewBox="0 0 30 30" fill="none" xmlns="http://www.w3.org/2000/svg">
<path d="M5.88022 0.00634766C2.64871 0.00634766 0.00390625 2.65109 0.00390625 5.88266L0.00390625 24.1179C0.00390625 27.3494 2.64865 29.9932 5.88022 29.9932H24.1154C27.347 29.9932 29.9908 27.3494 29.9908 24.1179V5.88266C29.9908 2.65115 27.347 0.00634766 24.1154 0.00634766H5.88022ZM7.3582 4.95479C8.90763 4.95479 9.86202 5.97197 9.89149 7.30904C9.89149 8.61659 8.90757 9.66236 7.32823 9.66236H7.29916C5.77921 9.66236 4.7968 8.61665 4.7968 7.30904C4.7968 5.972 5.80894 4.95479 7.35817 4.95479H7.3582ZM20.7106 11.2041C23.6905 11.2041 25.9243 13.1517 25.9243 17.3372V25.1506H21.3957V17.861C21.3957 16.0292 20.7403 14.7795 19.1014 14.7795C17.8503 14.7795 17.1046 15.6218 16.7771 16.4355C16.6575 16.7267 16.6281 17.1333 16.6281 17.5405V25.1506H12.0995C12.0995 25.1506 12.159 12.8022 12.0995 11.5236H16.6291V13.4534C17.2309 12.5249 18.3073 11.2041 20.7106 11.2041V11.2041ZM5.06392 11.5246H9.5925V25.1507H5.06392V11.5246Z" fill="#ADB5BD"/>
</svg>
