<svg width="31" height="34" viewBox="0 0 31 34" fill="none" xmlns="http://www.w3.org/2000/svg">
<g clip-path="url(#clip0_1192_4847)">
<path d="M15.652 2.02087C19.7149 1.70111 20.222 1.67621 21.8167 1.62575C23.4099 1.57541 24.4961 1.74058 25.4532 2.03748C26.4432 2.34079 27.2789 2.79134 28.1172 3.55838C28.8837 4.24835 29.4795 5.10906 29.8631 6.08059C30.2403 7.00699 30.5005 8.07618 30.5884 9.66775C30.6718 11.2612 30.6954 11.7681 30.7288 15.8435C30.7622 19.9188 30.7515 20.4285 30.6898 22.0333C30.6281 23.6367 30.3858 24.7439 30.0243 25.7299C29.6582 26.761 29.0771 27.7146 28.322 28.5235C27.5805 29.3448 26.6811 30.0061 25.6863 30.4615C24.7368 30.907 23.6533 31.2444 22.0613 31.4447C20.4678 31.6407 19.961 31.7001 15.8981 32.0199C11.8352 32.3396 11.3281 32.3645 9.73341 32.415C8.14022 32.4653 7.05401 32.2986 6.09692 32.0032C5.09541 31.706 4.18617 31.187 3.43292 30.4823C2.66624 29.7925 2.0704 28.9318 1.68695 27.9601C1.30826 27.0338 1.0496 25.9645 0.961728 24.373C0.878329 22.7796 0.854718 22.2726 0.821287 18.1972C0.787855 14.1219 0.798638 13.6122 0.86029 12.0074C0.921942 10.4026 1.16276 9.29695 1.52576 8.31079C1.89174 7.27965 2.47283 6.32607 3.22813 5.51719C3.96907 4.69525 4.86856 4.03385 5.86375 3.5792C6.81475 3.13213 7.89534 2.79643 9.4888 2.59598C11.0823 2.40002 11.5891 2.34063 15.652 2.02087ZM15.7135 9.52061C13.7305 9.67668 11.8352 10.6165 10.4446 12.1333C9.05394 13.6502 8.28185 15.6197 8.29817 17.6088C8.31448 19.5979 9.11787 21.4435 10.5316 22.7396C11.9453 24.0357 13.8536 24.6762 15.8366 24.5201C17.8196 24.364 19.7149 23.4242 21.1055 21.9074C22.4961 20.3906 23.2682 18.421 23.2519 16.4319C23.2356 14.4429 22.4322 12.5973 21.0185 11.3011C19.6048 10.005 17.6965 9.36455 15.7135 9.52061ZM25.4304 8.38065C25.4263 7.88339 25.2255 7.42199 24.872 7.09796C24.5186 6.77393 24.0415 6.61381 23.5458 6.65283C23.05 6.69184 22.5762 6.9268 22.2286 7.306C21.8809 7.68521 21.6879 8.17761 21.692 8.67487C21.696 9.17214 21.8969 9.63354 22.2503 9.95757C22.6037 10.2816 23.0808 10.4417 23.5766 10.4027C24.0723 10.3637 24.5461 10.1287 24.8938 9.74952C25.2414 9.37031 25.4345 8.87792 25.4304 8.38065ZM15.7381 12.5205C16.9279 12.4269 18.0729 12.8112 18.9211 13.5888C19.7694 14.3665 20.2514 15.4739 20.2612 16.6673C20.271 17.8607 19.8077 19.0425 18.9733 19.9526C18.1389 20.8627 17.0018 21.4266 15.812 21.5202C14.6222 21.6138 13.4772 21.2296 12.629 20.4519C11.7807 19.6742 11.2987 18.5669 11.2889 17.3734C11.2791 16.18 11.7424 14.9982 12.5768 14.0881C13.4112 13.178 14.5483 12.6142 15.7381 12.5205Z" fill="#2F55D4"/>
</g>
<defs>
<clipPath id="clip0_1192_4847">
<rect width="30" height="30" fill="white" transform="matrix(0.996917 -0.0784591 0.00820296 0.999966 0.698242 3.19775)"/>
</clipPath>
</defs>
</svg>
