<svg width="140" height="139" viewBox="0 0 140 139" fill="none" xmlns="http://www.w3.org/2000/svg">
<g filter="url(#filter0_b_1192:3893)">
<path d="M130.406 69.485C130.406 103.002 103.235 130.172 69.7184 130.172C36.2018 130.172 9.03125 103.002 9.03125 69.485C9.03125 35.9684 36.2018 8.79785 69.7184 8.79785C103.235 8.79785 130.406 35.9684 130.406 69.485ZM37.4601 69.485C37.4601 87.3008 51.9026 101.743 69.7184 101.743C87.5342 101.743 101.977 87.3008 101.977 69.485C101.977 51.6692 87.5342 37.2267 69.7184 37.2267C51.9026 37.2267 37.4601 51.6692 37.4601 69.485Z" fill="white" fill-opacity="0.8"/>
</g>
<path d="M48.8595 101.751C49.8574 102.406 50.5846 103.188 51.0412 104.098C51.4881 105.001 51.6496 105.98 51.5255 107.035C51.4014 108.09 50.9898 109.15 50.2905 110.216C49.5912 111.282 48.7903 112.08 47.8878 112.61C46.9693 113.144 46.002 113.383 44.986 113.326C43.9699 113.269 42.963 112.913 41.9651 112.258C40.9672 111.603 40.2448 110.825 39.7978 109.921C39.3412 109.012 39.1798 108.033 39.3136 106.984C39.4313 105.939 39.8398 104.883 40.5391 103.817C41.2384 102.752 42.0473 101.952 42.9658 101.418C43.8843 100.884 44.8516 100.646 45.8676 100.703C46.874 100.753 47.8713 101.103 48.8595 101.751ZM47.8773 103.248C46.9375 102.631 45.9931 102.476 45.044 102.782C44.0852 103.081 43.2084 103.837 42.4138 105.048C41.6191 106.259 41.2785 107.359 41.3917 108.348C41.489 109.34 42.0075 110.145 42.9473 110.761C43.8967 111.384 44.8509 111.546 45.8097 111.247C46.7524 110.951 47.6211 110.197 48.4158 108.986C49.2104 107.775 49.5591 106.673 49.4619 105.681C49.3549 104.682 48.8268 103.871 47.8773 103.248Z" fill="#2F55D4"/>
<path d="M38.1432 91.3556C39.0991 92.7375 39.4668 94.033 39.2465 95.2421C39.0261 96.4513 38.2297 97.5305 36.8574 98.4798L31.6968 102.049C31.4204 102.241 31.1452 102.311 30.8711 102.261C30.5875 102.218 30.3501 102.058 30.159 101.782C29.9678 101.505 29.902 101.227 29.9614 100.946C30.0114 100.672 30.1745 100.439 30.4509 100.248L35.7116 96.6094C36.5788 96.0095 37.0947 95.3497 37.2591 94.6301C37.4141 93.9171 37.218 93.1651 36.6708 92.3741C36.1303 91.5926 35.4943 91.1519 34.7629 91.0519C34.0316 90.9519 33.237 91.1986 32.3793 91.7919L27.1186 95.4307C26.8423 95.6218 26.567 95.6924 26.293 95.6425C26.0094 95.5991 25.772 95.4393 25.5808 95.1629C25.3896 94.8865 25.3238 94.608 25.3833 94.3273C25.4332 94.0533 25.5964 93.8206 25.8727 93.6295L31.0333 90.0599C32.3961 89.1172 33.6869 88.7528 34.9056 88.9665C36.1148 89.1869 37.194 89.9832 38.1432 91.3556Z" fill="#2F55D4"/>
<path d="M29.6111 73.897C29.7812 73.7129 29.962 73.5977 30.1536 73.5515C30.4126 73.4891 30.6525 73.5444 30.8731 73.7177C31.091 73.8797 31.2339 74.1016 31.3018 74.3832C31.3453 74.5634 31.3479 74.7475 31.3098 74.9355C31.2578 75.115 31.1608 75.2814 31.019 75.4348L28.1478 78.5054C27.8417 78.8176 27.6466 79.121 27.5627 79.4154C27.476 79.6985 27.4816 80.0429 27.5794 80.4484L27.9788 82.1043L31.7638 81.1914C32.1017 81.1099 32.3952 81.1404 32.6441 81.283C32.8818 81.4284 33.0401 81.6643 33.1189 81.991C33.1977 82.3177 33.1658 82.6055 33.0232 82.8545C32.8666 83.0949 32.6193 83.2559 32.2814 83.3374L22.3965 85.7215C22.0698 85.8003 21.7946 85.7714 21.5709 85.6346C21.3445 85.4866 21.1918 85.2492 21.1131 84.9225L20.0942 80.6982C19.7681 79.3464 19.825 78.2479 20.2649 77.4028C20.6907 76.5491 21.4726 75.9851 22.6103 75.7107C23.534 75.4879 24.3583 75.5692 25.083 75.9546C25.7937 76.3315 26.3491 76.9784 26.749 77.8951C26.7491 77.5494 26.8206 77.2282 26.9636 76.9315C27.1066 76.6347 27.3298 76.3246 27.6332 76.0011L29.6111 73.897ZM25.6254 79.686C25.427 78.8636 25.1296 78.2976 24.733 77.988C24.3253 77.6811 23.8003 77.605 23.1582 77.7599C22.5048 77.9175 22.0779 78.2231 21.8774 78.6767C21.6656 79.1331 21.6589 79.7725 21.8573 80.5948L22.5419 83.4335L26.31 82.5247L25.6254 79.686Z" fill="#2F55D4"/>
<path d="M25.8012 43.4993C25.6177 43.3361 25.5055 43.1521 25.4644 42.9473C25.4278 42.7318 25.4513 42.5222 25.5351 42.3186C25.6409 42.0614 25.8117 41.8747 26.0473 41.7587C26.2874 41.6319 26.5415 41.6236 26.8094 41.7338C26.9058 41.7735 27.0341 41.8576 27.1943 41.9861L35.3371 49.3767C35.5162 49.5506 35.6228 49.7636 35.6569 50.0157C35.6954 50.2571 35.6662 50.4957 35.5692 50.7315C35.4722 50.9672 35.3229 51.1627 35.1213 51.3178C34.9196 51.4729 34.6962 51.5439 34.451 51.5308L25.7821 51.0847L32.2358 56.9159C32.4149 57.0898 32.5215 57.3028 32.5556 57.5549C32.5941 57.7963 32.5649 58.0348 32.4679 58.2706C32.3709 58.5064 32.2216 58.7018 32.02 58.8569C31.8227 59.0013 31.6015 59.067 31.3563 59.0538L20.3701 58.5754C20.1873 58.5629 20.0369 58.5324 19.919 58.4839C19.6511 58.3737 19.4765 58.189 19.3951 57.93C19.3181 57.6603 19.3347 57.3914 19.4449 57.1235C19.5331 56.9092 19.666 56.7383 19.8437 56.611C20.0214 56.4836 20.2329 56.4265 20.478 56.4396L29.4628 56.9404L22.8076 50.9136C22.6241 50.7504 22.5087 50.5589 22.4614 50.3389C22.4033 50.1145 22.4162 49.9005 22.4999 49.6969C22.5837 49.4933 22.7251 49.3322 22.9243 49.2137C23.1171 49.08 23.3415 49.0219 23.5974 49.0395L32.6143 49.5535L25.8012 43.4993Z" fill="#2F55D4"/>
<path d="M44.5475 39.8205C43.6448 40.6013 42.6936 41.0869 41.694 41.2774C40.7031 41.4603 39.7172 41.3478 38.7362 40.9399C37.7553 40.532 36.8479 39.846 36.0141 38.8819C35.1802 37.9178 34.6316 36.9292 34.3682 35.9161C34.1059 34.8866 34.1411 33.891 34.4736 32.9292C34.8062 31.9675 35.4238 31.0962 36.3266 30.3154C37.2293 29.5347 38.1761 29.0528 39.167 28.8699C40.1667 28.6794 41.1526 28.7919 42.1247 29.2074C43.0981 29.6065 44.0017 30.2882 44.8355 31.2523C45.6694 32.2163 46.2174 33.2131 46.4797 34.2426C46.7419 35.2721 46.7068 36.2677 46.3742 37.2295C46.0504 38.1836 45.4415 39.0473 44.5475 39.8205ZM43.3764 38.4664C44.2265 37.7311 44.6343 36.8652 44.5997 35.8686C44.5739 34.8645 44.0872 33.8146 43.1396 32.7191C42.1921 31.6235 41.2271 30.995 40.2447 30.8334C39.2636 30.6555 38.3479 30.9343 37.4978 31.6696C36.6388 32.4124 36.2223 33.2859 36.2481 34.2901C36.2752 35.2779 36.7625 36.3196 37.71 37.4151C38.6576 38.5107 39.6219 39.1474 40.6031 39.3253C41.593 39.4956 42.5175 39.2093 43.3764 38.4664Z" fill="#2F55D4"/>
<path d="M61.4561 29.3254C61.6557 29.477 61.7878 29.6458 61.8524 29.8319C61.9396 30.0838 61.9077 30.3278 61.7566 30.5642C61.6164 30.7967 61.4095 30.9604 61.1358 31.0553C60.9606 31.116 60.7776 31.1365 60.5868 31.1168C60.4032 31.0823 60.2281 31.0019 60.0617 30.8756L56.7276 28.3151C56.3872 28.0406 56.0664 27.8759 55.7653 27.8208C55.4751 27.762 55.1329 27.8008 54.7387 27.9374L53.1292 28.4952L54.4042 32.1741C54.5181 32.5026 54.5161 32.7976 54.3982 33.0592C54.2766 33.3098 54.057 33.4902 53.7395 33.6002C53.422 33.7103 53.1325 33.7064 52.8709 33.5885C52.6164 33.456 52.4323 33.2255 52.3184 32.897L48.9887 23.2893C48.8786 22.9717 48.8808 22.695 48.9953 22.4591C49.1207 22.2194 49.3422 22.0446 49.6597 21.9345L53.7656 20.5115C55.0794 20.0562 56.1783 20.0065 57.062 20.3625C57.9529 20.7037 58.59 21.4272 58.9732 22.5331C59.2844 23.4309 59.2832 24.2591 58.9698 25.0178C58.6634 25.7617 58.0734 26.377 57.1996 26.8638C57.5437 26.8304 57.8704 26.8705 58.1795 26.9841C58.4887 27.0977 58.819 27.2898 59.1703 27.5605L61.4561 29.3254ZM55.3084 25.9188C56.1077 25.6418 56.6423 25.2909 56.9121 24.8663C57.1781 24.4307 57.203 23.9009 56.9867 23.2768C56.7666 22.6417 56.4211 22.2464 55.9501 22.0907C55.4754 21.9241 54.8384 21.9793 54.0391 22.2563L51.28 23.2126L52.5493 26.875L55.3084 25.9188Z" fill="#2F55D4"/>
<path d="M75.8716 28.5138C76.0992 28.7381 76.2105 28.9894 76.2054 29.2674C76.2005 29.5339 76.0919 29.7695 75.8795 29.9742C75.679 30.1676 75.4396 30.2617 75.1616 30.2566C74.8719 30.2513 74.6077 30.1247 74.3688 29.877L68.6811 24.3486L68.5951 29.0409C68.5889 29.3769 68.4796 29.6472 68.2672 29.852C68.0665 30.0569 67.7923 30.1562 67.4447 30.1498C67.1087 30.1436 66.8384 30.0344 66.6336 29.822C66.4405 29.6098 66.347 29.3357 66.3532 28.9998L66.5403 18.7983C66.5465 18.4623 66.6499 18.1977 66.8504 18.0043C67.0628 17.7996 67.337 17.7003 67.673 17.7065C68.0206 17.7129 68.2909 17.8221 68.4841 18.0343C68.689 18.2351 68.7884 18.5035 68.7822 18.8395L68.7003 23.3058L74.3926 18.1601C74.6049 17.9554 74.8444 17.8554 75.1109 17.8603C75.3773 17.8652 75.6071 17.9737 75.8003 18.1859C76.0052 18.3867 76.1052 18.6203 76.1003 18.8868C76.0954 19.1533 75.9751 19.3945 75.7394 19.6103L70.986 23.7998L75.8716 28.5138Z" fill="#2F55D4"/>
<path d="M90.784 36.2089C89.7707 35.6004 89.0128 34.8479 88.5103 33.9515C88.0178 33.061 87.8125 32.0861 87.8944 31.0269C87.9762 29.9677 88.3453 28.8917 89.0015 27.799C89.6577 26.7062 90.4311 25.8797 91.3216 25.3197C92.2181 24.7496 93.1751 24.4728 94.1926 24.489C95.22 24.5113 96.2404 24.8266 97.2537 25.4351C97.9093 25.8289 98.4656 26.2981 98.9225 26.8428C99.3853 27.3775 99.7299 27.9629 99.9562 28.5989C100.026 28.7758 100.052 28.9338 100.037 29.0729C100.021 29.2121 99.9649 29.3611 99.8694 29.52C99.7382 29.7386 99.5682 29.8866 99.3595 29.964C99.1508 30.0414 98.962 30.0294 98.7932 29.928C98.5945 29.8087 98.4326 29.6169 98.3075 29.3525C98.0712 28.7781 97.8051 28.3209 97.5091 27.981C97.2191 27.6311 96.8505 27.3219 96.4035 27.0535C95.3703 26.4331 94.3916 26.2846 93.4674 26.6082C92.5531 26.9378 91.7202 27.7284 90.9685 28.9801C90.2109 30.2418 89.9014 31.3536 90.0402 32.3155C90.1889 33.2834 90.7798 34.0775 91.813 34.6979C92.2401 34.9545 92.6713 35.1255 93.1065 35.2111C93.5516 35.3027 94.0951 35.3317 94.7371 35.2982C94.8722 35.2983 95.0014 35.3082 95.1246 35.3282C95.2478 35.3481 95.364 35.3908 95.4733 35.4565C95.6422 35.5579 95.7415 35.7189 95.7712 35.9395C95.8009 36.1601 95.7502 36.3797 95.6189 36.5982C95.5295 36.7472 95.4241 36.8664 95.3028 36.9558C95.1875 37.0353 95.0355 37.0859 94.8467 37.1077C94.1789 37.2068 93.4973 37.1827 92.8018 37.0354C92.1122 36.8781 91.4396 36.6026 90.784 36.2089Z" fill="#2F55D4"/>
<path d="M100.599 45.0277C99.5593 43.7077 99.1121 42.4374 99.2573 41.2169C99.4024 39.9964 100.13 38.87 101.441 37.8377L106.371 33.9556C106.635 33.7477 106.906 33.6602 107.182 33.6931C107.468 33.7188 107.715 33.8637 107.923 34.1277C108.131 34.3918 108.214 34.6657 108.172 34.9495C108.139 35.2261 107.99 35.4684 107.726 35.6763L102.701 39.6336C101.872 40.286 101.398 40.9764 101.279 41.7048C101.168 42.426 101.41 43.1645 102.005 43.9201C102.593 44.6667 103.255 45.0672 103.991 45.1217C104.728 45.1763 105.505 44.8809 106.325 44.2357L111.35 40.2784C111.614 40.0705 111.885 39.983 112.161 40.0159C112.447 40.0416 112.694 40.1865 112.902 40.4505C113.11 40.7145 113.193 40.9885 113.151 41.2723C113.118 41.5489 112.969 41.7912 112.705 41.9991L107.775 45.8811C106.473 46.9063 105.208 47.3499 103.978 47.2119C102.758 47.0668 101.631 46.3387 100.599 45.0277Z" fill="#2F55D4"/>
<path d="M106.197 54.059C106.088 53.7412 106.09 53.4645 106.205 53.2288C106.32 52.9932 106.531 52.8225 106.838 52.7169L116.469 49.4011C116.787 49.2917 117.071 49.2981 117.321 49.4202C117.586 49.5495 117.774 49.7731 117.883 50.0908C117.996 50.4195 117.986 50.711 117.853 50.9651C117.735 51.2265 117.517 51.4118 117.199 51.5212L108.324 54.5768L109.914 59.195C110.14 59.8524 109.963 60.2811 109.382 60.481C108.802 60.6809 108.398 60.4522 108.172 59.7948L106.197 54.059Z" fill="#2F55D4"/>
<path d="M109.048 68.2255C109.04 67.878 109.132 67.5976 109.324 67.3845C109.528 67.1826 109.798 67.0777 110.133 67.0698L119.517 66.8482L119.442 63.6856C119.426 62.9905 119.725 62.6357 120.339 62.6212C120.953 62.6067 121.268 62.947 121.284 63.6421L121.487 72.209C121.503 72.9041 121.204 73.2588 120.59 73.2733C119.976 73.2878 119.661 72.9475 119.645 72.2525L119.57 69.0899L110.186 69.3114C109.85 69.3193 109.576 69.2215 109.362 69.0179C109.161 68.8256 109.056 68.5615 109.048 68.2255Z" fill="#2F55D4"/>
<path d="M107.008 81.4188C107.541 79.8254 108.357 78.7544 109.457 78.206C110.557 77.6575 111.898 77.648 113.481 78.1775L119.431 80.1683C119.75 80.2749 119.972 80.4529 120.096 80.7022C120.231 80.9552 120.246 81.2411 120.139 81.5597C120.032 81.8784 119.849 82.0981 119.589 82.2187C119.339 82.343 119.055 82.3519 118.737 82.2453L112.671 80.2158C111.671 79.8812 110.833 79.8638 110.159 80.1636C109.495 80.467 109.011 81.0747 108.706 81.9868C108.404 82.8879 108.433 83.6612 108.791 84.3065C109.149 84.9518 109.823 85.4399 110.812 85.7708L116.878 87.8003C117.197 87.9069 117.418 88.0849 117.543 88.3342C117.678 88.5872 117.692 88.873 117.586 89.1917C117.479 89.5104 117.296 89.7301 117.035 89.8507C116.786 89.975 116.502 89.9839 116.183 89.8773L110.233 87.8864C108.661 87.3606 107.596 86.546 107.036 85.4424C106.488 84.3424 106.478 83.0012 107.008 81.4188Z" fill="#2F55D4"/>
<path d="M98.1484 98.7185C97.8991 98.6926 97.6985 98.6169 97.5468 98.4913C97.3414 98.3214 97.242 98.0962 97.2484 97.8158C97.2475 97.5443 97.3394 97.2969 97.5241 97.0737C97.6423 96.9309 97.7881 96.8184 97.9614 96.7362C98.1362 96.6703 98.3275 96.6481 98.5353 96.6697L102.714 97.1272C103.148 97.1851 103.507 97.1594 103.793 97.0501C104.072 96.9497 104.344 96.7388 104.61 96.4175L105.696 95.1051L102.697 92.6228C102.429 92.4012 102.277 92.148 102.242 91.8632C102.216 91.5859 102.31 91.3177 102.524 91.0588C102.739 90.7999 102.988 90.6529 103.273 90.6178C103.559 90.5991 103.836 90.7005 104.104 90.9221L111.938 97.405C112.197 97.6193 112.338 97.8569 112.363 98.118C112.38 98.3879 112.282 98.6524 112.068 98.9113L109.297 102.259C108.411 103.33 107.497 103.943 106.557 104.098C105.618 104.269 104.698 103.981 103.797 103.235C103.065 102.629 102.636 101.921 102.51 101.109C102.385 100.315 102.57 99.4823 103.064 98.6127C102.788 98.8198 102.488 98.9551 102.164 99.0186C101.841 99.082 101.459 99.0892 101.018 99.0403L98.1484 98.7185ZM105.171 98.4385C104.632 99.0902 104.357 99.6676 104.347 100.171C104.346 100.681 104.6 101.147 105.108 101.568C105.626 101.996 106.127 102.155 106.61 102.043C107.102 101.939 107.618 101.561 108.157 100.91L110.019 98.6601L107.033 96.1888L105.171 98.4385Z" fill="#2F55D4"/>
<path d="M92.6391 101.164C92.9266 100.99 93.2027 100.932 93.4672 100.988C93.7218 101.051 93.9361 101.226 94.11 101.514L99.3549 110.184C99.5288 110.472 99.5844 110.743 99.5217 110.998C99.4491 111.258 99.2691 111.475 98.9815 111.649L93.6125 114.897C93.325 115.071 93.0629 115.141 92.8263 115.109C92.5897 115.076 92.3994 114.94 92.2555 114.702C92.1055 114.454 92.0679 114.213 92.1426 113.978C92.2233 113.753 92.4074 113.554 92.6949 113.38L97.1121 110.708L95.3668 107.823L91.2471 110.315C90.9595 110.489 90.6974 110.559 90.4608 110.526C90.2242 110.493 90.031 110.353 89.881 110.105C89.7371 109.867 89.7054 109.636 89.7861 109.411C89.8668 109.186 90.0509 108.987 90.3384 108.813L94.4581 106.321L92.6049 103.257L88.1877 105.929C87.9002 106.103 87.6351 106.168 87.3925 106.126C87.1559 106.093 86.9626 105.952 86.8127 105.704C86.6687 105.466 86.6371 105.235 86.7178 105.01C86.7985 104.785 86.9826 104.586 87.2701 104.412L92.6391 101.164Z" fill="#2F55D4"/>
<path d="M70.6638 116.651C71.8672 116.472 72.7156 115.326 72.5361 114.123C72.3567 112.919 71.2108 112.071 70.0074 112.25C68.804 112.43 67.9556 113.575 68.1351 114.779C68.3145 115.982 69.4604 116.831 70.6638 116.651Z" fill="#2F55D4"/>
<defs>
<filter id="filter0_b_1192:3893" x="4.73894" y="4.50554" width="129.959" height="129.959" filterUnits="userSpaceOnUse" color-interpolation-filters="sRGB">
<feFlood flood-opacity="0" result="BackgroundImageFix"/>
<feGaussianBlur in="BackgroundImage" stdDeviation="2.14615"/>
<feComposite in2="SourceAlpha" operator="in" result="effect1_backgroundBlur_1192:3893"/>
<feBlend mode="normal" in="SourceGraphic" in2="effect1_backgroundBlur_1192:3893" result="shape"/>
</filter>
</defs>
</svg>
