<svg width="30" height="30" viewBox="0 0 30 30" fill="none" xmlns="http://www.w3.org/2000/svg">
<path fill-rule="evenodd" clip-rule="evenodd" d="M30 5.625V24.375C30 25.9245 29.4499 27.2493 28.3496 28.3496C27.2493 29.4499 25.9245 30 24.375 30H5.625C4.07552 30 2.75065 29.4499 1.65039 28.3496C0.55013 27.2493 0 25.9245 0 24.375L0 5.625C0 4.07552 0.55013 2.75065 1.65039 1.65039C2.75065 0.55013 4.07552 0 5.625 0H24.375C25.9245 0 27.2493 0.55013 28.3496 1.65039C29.4499 2.75065 30 4.07552 30 5.625ZM21.5275 15.0002L10.4727 21.4032L10.4728 8.59717L21.5275 15.0002Z" fill="#ADB5BD"/>
</svg>
